<?xml version="1.0" encoding="UTF-8"?>
<svg xmlns="http://www.w3.org/2000/svg" viewBox="207.5 207.3797607421875 609 609.1202392578125">
<svg version="1.1" xmlns="http://www.w3.org/2000/svg" width="1024" height="1024">
<path d="M0 0 C2.60902821 1.6578598 3.59363386 2.34230808 5 5 C5.62934353 9.61582466 5.46877681 14.16506812 5.3125 18.8125 C5.27866211 20.71032227 5.27866211 20.71032227 5.24414062 22.64648438 C5.18529078 25.76552619 5.1031137 28.88215902 5 32 C5.60247559 31.96970703 6.20495117 31.93941406 6.82568359 31.90820312 C19.8892056 31.26358067 32.91999097 30.71862136 46 31 C46.86431641 31.01788574 47.72863281 31.03577148 48.61914062 31.05419922 C72.70547801 31.64219427 93.30106565 37.18358982 110.4921875 55.109375 C117.13231126 62.7631002 126.23528367 75.41223471 126 86 C124.32005019 90.85318834 122.37894851 94.19967232 118 97 C115.70996094 97.43237305 115.70996094 97.43237305 113.234375 97.51171875 C112.34492187 97.54716797 111.45546875 97.58261719 110.5390625 97.61914062 C109.61867188 97.64169922 108.69828125 97.66425781 107.75 97.6875 C106.81414062 97.72166016 105.87828125 97.75582031 104.9140625 97.79101562 C102.60949467 97.87332162 100.30529881 97.9425263 98 98 C98.34256836 98.56920166 98.68513672 99.13840332 99.03808594 99.72485352 C100.60951975 102.33692453 102.17976772 104.94970653 103.75 107.5625 C104.55824219 108.90538086 104.55824219 108.90538086 105.3828125 110.27539062 C107.72203186 114.16933504 110.04909074 118.06205032 112.265625 122.02734375 C113.83196165 125.00157117 113.83196165 125.00157117 116 127 C116.93745278 128.61891023 117.83561139 130.26073487 118.7109375 131.9140625 C121.88261154 137.81641887 125.21892847 143.60536948 128.625 149.375 C129.18445313 150.33277344 129.74390625 151.29054688 130.3203125 152.27734375 C132.98032408 156.78807094 135.68182782 160.93726235 139 165 C139 165.66 139 166.32 139 167 C139.66386719 167.25394531 140.32773437 167.50789062 141.01171875 167.76953125 C154.05869833 173.14181696 166.37590205 178.85951302 173 192 C176.15974228 199.74136858 176.1586417 207.5977615 176.16796875 215.83203125 C176.17129715 216.86382004 176.17462555 217.89560883 176.17805481 218.95866394 C176.18310078 221.13462887 176.18546386 223.31060149 176.18530273 225.48657227 C176.187486 228.79131003 176.20565799 232.09571194 176.22460938 235.40039062 C176.22754454 237.52343637 176.22952851 239.64648368 176.23046875 241.76953125 C176.23765427 242.74590042 176.24483978 243.72226959 176.25224304 244.72822571 C176.2126851 256.78407492 173.85940529 269.14059471 165 278 C159.14125566 282.39405825 153.45178018 285 146 285 C145.91363281 284.12859375 145.82726562 283.2571875 145.73828125 282.359375 C144.00073367 267.63007261 139.26281623 255.6927483 127.5625 246.1875 C117.38203114 238.79128688 104.73907216 234.44749204 92 236 C78.40005333 238.19573607 67.55409393 243.48097062 59.01953125 254.57421875 C53.29265758 263.13400221 50.10192709 271.9848432 48.39453125 282.1015625 C48 284 48 284 47 285 C45.10171764 285.0965683 43.19979337 285.12187216 41.29905701 285.12025452 C40.0608017 285.12162918 38.82254639 285.12300385 37.54676819 285.12442017 C36.16195655 285.12088056 34.77714515 285.11724574 33.39233398 285.11352539 C31.94392906 285.11324352 30.49552399 285.11340124 29.04711914 285.1139679 C25.10307686 285.11425589 21.15906473 285.1083588 17.21502948 285.10139394 C13.09770531 285.09516078 8.98038052 285.09455663 4.86305237 285.09336853 C-2.93905862 285.0902551 -10.74115567 285.08204156 -18.54326051 285.07201904 C-27.42340304 285.06085826 -36.30354622 285.05534754 -45.18369401 285.05032361 C-63.45580392 285.03985896 -81.72790084 285.02225929 -100 285 C-100.23203125 283.82630859 -100.23203125 283.82630859 -100.46875 282.62890625 C-100.91987509 280.39650048 -101.43111661 278.20442313 -102 276 C-102.144375 275.319375 -102.28875 274.63875 -102.4375 273.9375 C-102.98102599 271.70268087 -102.98102599 271.70268087 -105 269 C-104.67 268.01 -104.34 267.02 -104 266 C-106.58109202 259.73163367 -110.01802031 254.54239325 -115 250 C-115 249.34 -115 248.68 -115 248 C-115.556875 247.73316406 -116.11375 247.46632813 -116.6875 247.19140625 C-120.09793485 245.434341 -123.30844592 243.3686671 -126.5625 241.33984375 C-130.4606002 239.19713803 -133.5885478 238.87745966 -138 239 C-137.67 238.34 -137.34 237.68 -137 237 C-152.61211322 234.70928361 -167.02891276 236.72556326 -180 246 C-189.35453843 253.5577261 -195.70879858 265.27625259 -197.46484375 277.140625 C-197.71023406 279.76260361 -197.89821668 282.36890111 -198 285 C-210.24589741 285.5659208 -223.16636105 285.46150328 -233 277 C-243.19763701 267.25105902 -246.68622775 257.09800678 -247.81159973 243.28410339 C-247.94055092 241.72074129 -248.09041748 240.15900251 -248.25810242 238.59931946 C-249.39126649 226.828491 -249.01861795 215.03160103 -248.87890625 203.22265625 C-248.85453421 200.80529798 -248.83069455 198.38793428 -248.80735779 195.9705658 C-248.74482788 189.62509443 -248.67577143 183.27971147 -248.60510254 176.93432617 C-248.50723513 168.03988968 -248.41835195 159.14535815 -248.32835388 150.25083923 C-248.28053861 145.52812506 -248.23036476 140.80544603 -248.17811584 136.08277893 C-248.15442114 133.88209252 -248.13093331 131.68140386 -248.10766602 129.48071289 C-248.09642983 128.42730744 -248.08519365 127.373902 -248.07361698 126.28857517 C-248.02319156 121.12385456 -247.99494494 115.96035355 -248.0085144 110.79537964 C-248.01111487 109.80339034 -248.01371534 108.81140104 -248.01639462 107.78935146 C-248.0232615 105.9435437 -248.0333301 104.09774345 -248.04745579 102.25197697 C-248.13823044 81.01596371 -242.84920394 64.86771651 -227.8125 49.5625 C-219.63727121 41.54575707 -219.63727121 41.54575707 -215 40 C-213.24671099 39.173609 -211.49710289 38.33939022 -209.75 37.5 C-205.35923962 35.46767192 -201.76353222 34.51777524 -197 34 C-196.505 33.01 -196.505 33.01 -196 32 C-160.14870319 30.84132085 -124.30496777 30.87602089 -88.44012344 30.92797339 C-80.40792911 30.93939546 -72.37573366 30.94470993 -64.34353316 30.94967639 C-47.89567924 30.95997487 -31.44784177 30.97742406 -15 31 C-14.98541748 30.26885986 -14.97083496 29.53771973 -14.95581055 28.78442383 C-14.8811709 25.45992629 -14.78456199 22.13641533 -14.6875 18.8125 C-14.65366211 17.08676758 -14.65366211 17.08676758 -14.61914062 15.32617188 C-14.58369141 14.21435547 -14.54824219 13.10253906 -14.51171875 11.95703125 C-14.48553467 10.93585205 -14.45935059 9.91467285 -14.43237305 8.86254883 C-13.93719947 5.58422576 -12.9428115 3.66699044 -11 1 C-7.12254017 -1.30551666 -4.27464132 -1.33582541 0 0 Z M8 101.5625 C7.34 102.366875 6.68 103.17125 6 104 C5.67 104.33 5.34 104.66 5 105 C3.54200785 116.5923049 3.90025904 128.37552068 4.13208008 140.02807617 C4.18797316 143.08840726 4.21609216 146.14828692 4.24414062 149.20898438 C4.27954724 151.17190645 4.31659651 153.13479974 4.35546875 155.09765625 C4.35983444 156.00395279 4.36420013 156.91024933 4.36869812 157.8440094 C4.51537071 163.29039997 5.01417053 166.94086615 9 171 C16.65806316 175.71946852 27.03538075 174.43445179 35.6953125 174.3984375 C37.41446048 174.4004617 39.13360762 174.40337602 40.85275269 174.40713501 C44.44179524 174.4115397 48.03061267 174.40518587 51.61962891 174.39111328 C56.20712702 174.37399651 60.79409944 174.38388999 65.38157845 174.40183067 C68.92646206 174.41269678 72.47122202 174.40920968 76.01610947 174.4014473 C77.70730528 174.39945444 79.39851253 174.40187224 81.08969498 174.40888596 C83.45609344 174.41655022 85.82165199 174.40482885 88.18798828 174.38818359 C88.87803955 174.39425629 89.56809082 174.40032898 90.27905273 174.40658569 C95.27401224 174.34186918 98.63032521 173.25168872 103 171 C105.57918918 168.09841217 106.03576933 166.72343471 105.84375 162.83984375 C104.82006598 158.18113363 102.96277019 154.85262426 100.5 150.8125 C100.0265918 150.01658447 99.55318359 149.22066895 99.06542969 148.40063477 C97.38919137 145.59290917 95.69418285 142.79693205 94 140 C92.945938 138.24428753 91.89386796 136.48739009 90.84179688 134.73048401 C88.98323776 131.629582 87.1168022 128.53344396 85.25 125.4375 C84.71403198 124.54655136 84.71403198 124.54655136 84.16723633 123.63760376 C76.23297655 108.74119539 76.23297655 108.74119539 64 98 C59.12321738 96.93271187 54.38286093 96.83918803 49.41796875 96.83203125 C48.60435379 96.82870285 47.79073883 96.82537445 46.95246887 96.82194519 C45.23711712 96.81690176 43.52175564 96.81453606 41.80639648 96.81469727 C39.20604973 96.81251556 36.60613098 96.79434555 34.00585938 96.77539062 C32.3307306 96.77245505 30.65559983 96.77047135 28.98046875 96.76953125 C27.83157417 96.75875298 27.83157417 96.75875298 26.6594696 96.74775696 C19.89095116 96.77586959 13.28086216 97.05176358 8 101.5625 Z M-192.05859375 101.65625 C-192.51363281 102.2646875 -192.96867187 102.873125 -193.4375 103.5 C-194.14712891 104.41265625 -194.14712891 104.41265625 -194.87109375 105.34375 C-196.97098858 108.42456455 -197.1341397 110.38555547 -197.16113281 114.08886719 C-197.17074036 115.15047058 -197.1803479 116.21207397 -197.19024658 117.30584717 C-197.19449646 118.45788635 -197.19874634 119.60992554 -197.203125 120.796875 C-197.20882507 121.97840149 -197.21452515 123.15992798 -197.22039795 124.3772583 C-197.22985894 126.88235577 -197.23638628 129.38746575 -197.24023438 131.89257812 C-197.24992475 135.72027432 -197.28093241 139.54743027 -197.3125 143.375 C-197.31903141 145.80728847 -197.32428134 148.23958079 -197.328125 150.671875 C-197.3404718 151.81581726 -197.3528186 152.95975952 -197.36553955 154.1383667 C-197.3605393 161.99878883 -197.3605393 161.99878883 -194 169 C-184.78477707 175.95843364 -172.26522095 174.16240099 -161.24609375 174.16796875 C-159.73494944 174.17119 -158.22380543 174.1745547 -156.71266174 174.17805481 C-153.5617704 174.18400715 -150.41090633 174.18589857 -147.26000977 174.18530273 C-143.24343704 174.18520092 -139.2270403 174.19889054 -135.2105093 174.21607494 C-132.09535431 174.22724354 -128.98024138 174.22922051 -125.86506844 174.22869301 C-124.38485161 174.22986436 -122.90463338 174.23423805 -121.42443657 174.24202538 C-107.76393342 174.76407348 -107.76393342 174.76407348 -95.5625 169.625 C-91.83083051 165.80231418 -90.75498645 163.21737332 -90.70947266 157.89941406 C-90.69671295 156.88445862 -90.68395325 155.86950317 -90.67080688 154.8237915 C-90.66858124 153.73209656 -90.66635559 152.64040161 -90.6640625 151.515625 C-90.6574057 150.38606384 -90.6507489 149.25650269 -90.64389038 148.0927124 C-90.63376584 145.7021243 -90.6290733 143.31150795 -90.62939453 140.92089844 C-90.62503294 137.27751547 -90.58874118 133.63535524 -90.55078125 129.9921875 C-90.54491066 127.6666708 -90.54094289 125.34114835 -90.5390625 123.015625 C-90.52469147 121.93202698 -90.51032043 120.84842896 -90.49551392 119.73199463 C-90.53565721 113.02826175 -91.51045809 108.7516502 -95 103 C-95.66 103 -96.32 103 -97 103 C-97.85801712 102.03287834 -97.85801712 102.03287834 -98.73336792 101.04621887 C-101.667631 98.39729118 -103.35355569 98.41859856 -107.26611328 98.26049805 C-108.51442932 98.2052597 -109.76274536 98.15002136 -111.04888916 98.09310913 C-117.6143795 97.93839135 -124.17484958 97.83549954 -130.7421875 97.83203125 C-132.20516999 97.82880607 -133.66815217 97.82544113 -135.13113403 97.82194519 C-138.16815947 97.81601801 -141.2051567 97.81409903 -144.2421875 97.81469727 C-148.11525742 97.81479954 -151.9881467 97.80105215 -155.86117363 97.78392506 C-158.87076641 97.7727716 -161.88031558 97.77077894 -164.88992691 97.77130699 C-166.31793984 97.7701356 -167.74595421 97.76576167 -169.17394638 97.75797462 C-181.25994254 97.19900677 -181.25994254 97.19900677 -192.05859375 101.65625 Z " fill="#AD46FF" transform="translate(554,344)"/>
<path d="M0 0 C7.22655492 -0.02529174 14.4530985 -0.04284219 21.6796875 -0.05493164 C24.13965278 -0.05996989 26.59961505 -0.0668006 29.05957031 -0.07543945 C32.58920025 -0.08752723 36.11879069 -0.09323329 39.6484375 -0.09765625 C40.75367767 -0.10281754 41.85891785 -0.10797882 42.99765015 -0.11329651 C44.01855743 -0.11337204 45.03946472 -0.11344757 46.09130859 -0.11352539 C46.99287689 -0.115746 47.89444519 -0.11796661 48.82333374 -0.12025452 C51 0 51 0 53 1 C54.58987277 1.23158629 56.18663195 1.416732 57.78515625 1.578125 C93.76987484 5.42591496 127.38109983 14.07284112 160.26220703 29.21777344 C162.48065718 30.2163565 164.73580426 31.11093965 167 32 C169 33 169 33 172 35.0625 C174.68480293 37.18084181 174.68480293 37.18084181 177 37 C177.43054688 37.43441406 177.86109375 37.86882812 178.3046875 38.31640625 C180.38380084 40.38114783 182.55339638 41.52992309 185.125 42.9375 C197.1605195 49.83163253 208.3001282 58.20149915 219 67 C219.78117187 67.6084375 220.56234375 68.216875 221.3671875 68.84375 C229.63108909 75.28589693 237.48520056 82.31916833 244.76171875 89.86328125 C246.72537136 92.23016859 246.72537136 92.23016859 249 92 C250.43025226 90.35906743 251.7942239 88.66008997 253.125 86.9375 C259.00202247 79.6053948 264.44202326 73.25578278 273.9375 71.4375 C277.88683636 72.16288831 279.15073524 73.72343447 281.703125 76.6875 C285.88574193 84.14566031 286.1115156 93.84681679 287.3125 102.19921875 C287.52868408 103.68127229 287.74524376 105.16327108 287.9621582 106.6452179 C288.53044515 110.53422931 289.09396972 114.42391555 289.65637207 118.31378174 C290.33565149 123.00611846 291.0203897 127.69766095 291.70445251 132.38930225 C292.23775508 136.04755152 292.7702589 139.70591003 293.30004883 143.3646698 C294.35567372 150.64365873 295.4427546 157.91528914 296.61328125 165.17683411 C297.36125576 170.63727821 297.90450136 175.76254927 295.8125 180.9375 C292.12163731 185.13744719 288.46945144 186.41115637 283 187 C280.24389648 186.55371094 280.24389648 186.55371094 277.37109375 185.734375 C276.27087891 185.42628906 275.17066406 185.11820313 274.03710938 184.80078125 C272.84923828 184.45402344 271.66136719 184.10726562 270.4375 183.75 C269.19419922 183.39808594 267.95089844 183.04617188 266.66992188 182.68359375 C259.10333549 180.53409545 251.56837275 178.27879477 244.03515625 176.015625 C243.2001207 175.76528503 242.36508514 175.51494507 241.50474548 175.25701904 C237.37521412 174.01815213 233.24862648 172.77081479 229.12670898 171.50683594 C227.60535486 171.04606256 226.08395408 170.5854432 224.5625 170.125 C223.87096329 169.9097467 223.17942657 169.69449341 222.4669342 169.47271729 C218.83883224 168.38244513 215.76236222 167.98634351 212 168 C211.34 167.34 210.68 166.68 210 166 C208.17596739 165.25678812 208.17596739 165.25678812 206.078125 164.66796875 C205.29953125 164.42626953 204.5209375 164.18457031 203.71875 163.93554688 C202.09046742 163.44216695 200.46027503 162.95504063 198.828125 162.47460938 C193.50310449 160.80616134 190.00812456 158.91359332 186 155 C184.4452331 151.89046621 184.71355563 149.43733239 185 146 C188.34549032 139.16962392 194.39600088 135.63475318 200.6328125 131.69140625 C201.26912598 131.28833252 201.90543945 130.88525879 202.56103516 130.4699707 C203.84474255 129.66227921 205.13346076 128.86249278 206.42724609 128.07104492 C207.98494776 127.0990204 209.49739567 126.05519967 211 125 C211 121.90400118 209.20345702 120.86408027 207.0625 118.6875 C199.94885005 111.72413843 192.01981208 105.87133747 184 100 C183.27264648 99.4652002 182.54529297 98.93040039 181.79589844 98.37939453 C167.02000261 87.3282686 167.02000261 87.3282686 150.609375 79.1015625 C148.27000522 78.11398424 146.40873453 77.02424455 144.2890625 75.6484375 C139.84266156 72.81097266 135.22494782 70.67996129 130.375 68.625 C129.46548584 68.23924805 128.55597168 67.85349609 127.61889648 67.45605469 C84.01032651 49.35649913 32.56265251 42.60127632 -14 52 C-15.37430176 52.25740967 -15.37430176 52.25740967 -16.77636719 52.52001953 C-38.59268091 56.62571328 -58.83457368 63.80901354 -79 73 C-79.97525635 73.44013428 -79.97525635 73.44013428 -80.97021484 73.88916016 C-96.37023277 80.91969437 -110.77239078 90.48328163 -124 101 C-124.9075 101.71542969 -125.815 102.43085938 -126.75 103.16796875 C-141.16704364 114.73846542 -154.56454562 127.45473187 -166 142 C-166.77988281 142.96292969 -167.55976563 143.92585937 -168.36328125 144.91796875 C-207.37339299 194.00724812 -226.38211491 258.83332363 -219.8125 321.1875 C-217.81274861 338.55774594 -214.53751646 355.550254 -208.87963867 372.11523438 C-207.6801572 375.63760258 -207 378.23365923 -207 382 C-207.99 382 -208.98 382 -210 382 C-210.33 382.66 -210.66 383.32 -211 384 C-211.969375 384.0825 -212.93875 384.165 -213.9375 384.25 C-222.44651775 385.245922 -231.15234164 392.30299153 -236.46875 398.79296875 C-238.61571519 401.72008117 -240.53326049 404.66650111 -242 408 C-244.27357757 405.92242049 -245.59426561 404.1179438 -246.796875 401.2890625 C-247.27000122 400.18062988 -247.27000122 400.18062988 -247.75268555 399.04980469 C-248.2463562 397.84952637 -248.2463562 397.84952637 -248.75 396.625 C-249.27170776 395.36284668 -249.27170776 395.36284668 -249.80395508 394.07519531 C-278.08587929 324.47198597 -273.49074748 246.50904396 -244.84765625 177.765625 C-234.57845497 153.85472339 -221.14034341 132.32584575 -205 112 C-204.21496094 111.00871094 -203.42992187 110.01742187 -202.62109375 108.99609375 C-198.83942367 104.29300151 -194.99344095 99.83615576 -190.6484375 95.6484375 C-188.98537988 93.98537988 -187.5029804 92.24565409 -186 90.4375 C-176.32486456 79.26888728 -164.74551355 69.88404277 -153 61 C-151.948125 60.17822266 -151.948125 60.17822266 -150.875 59.33984375 C-145.89355828 55.48566794 -140.6334693 52.04747609 -135.36547852 48.60131836 C-132.54237337 46.74531673 -129.86069667 44.88722128 -127.23046875 42.7578125 C-125 41 -125 41 -122 40 C-120.22655906 39.08620203 -118.46666919 38.14598843 -116.71484375 37.19140625 C-80.01985293 17.47531065 -41.28873194 6.10612344 0 1 C0 0.67 0 0.34 0 0 Z " fill="#AD46FF" transform="translate(479,208)"/>
<path d="M0 0 C2 1 2 1 2.89794922 3.50244141 C3.19717285 4.60765137 3.49639648 5.71286133 3.8046875 6.8515625 C4.13903809 8.08414795 4.47338867 9.3167334 4.81787109 10.58666992 C5.17139337 11.93247944 5.52374353 13.27859733 5.875 14.625 C6.1429538 15.6405748 6.1429538 15.6405748 6.4163208 16.67666626 C9.65897726 29.01526742 12.21199343 41.36215518 14 54 C14.17354004 55.14178711 14.17354004 55.14178711 14.35058594 56.30664062 C25.21038173 129.19939456 1.86915535 208.31612171 -41.41308594 267.046875 C-46.34859813 273.5906569 -51.55157551 279.87883104 -57 286 C-57.84691406 286.95777344 -58.69382812 287.91554688 -59.56640625 288.90234375 C-70.56580767 301.11479391 -82.00605856 312.90502334 -95 323 C-96.06734375 323.90298828 -96.06734375 323.90298828 -97.15625 324.82421875 C-110.75886276 336.24753968 -126.2962602 345.75173279 -142 354 C-142.64743164 354.34224609 -143.29486328 354.68449219 -143.96191406 355.03710938 C-170.97733556 369.21654774 -199.40663543 378.03832533 -229.5 382.75 C-230.52048431 382.91050339 -230.52048431 382.91050339 -231.56158447 383.07424927 C-271.52267736 389.296333 -311.859189 386.83157812 -351 377 C-351.91942383 376.77473633 -352.83884766 376.54947266 -353.78613281 376.31738281 C-397.29570553 365.5006217 -440.49768044 341.97079665 -473 311 C-476.97377745 306.80718658 -476.97377745 306.80718658 -482 305 C-483.66205045 306.98788408 -485.21478496 308.98012729 -486.75 311.0625 C-487.65241433 312.25874251 -488.5560533 313.4540622 -489.4609375 314.6484375 C-489.89760742 315.2269043 -490.33427734 315.80537109 -490.78417969 316.40136719 C-498.42482104 326.44773658 -498.42482104 326.44773658 -504.40234375 327.37109375 C-511.23944894 327.55018587 -511.23944894 327.55018587 -514.9375 324.875 C-518.76049166 319.54598132 -520.52929149 314.5667774 -521.51806641 308.13037109 C-521.64369461 307.36538803 -521.76932281 306.60040497 -521.89875793 305.8122406 C-522.3089219 303.3007046 -522.70524146 300.78719166 -523.1015625 298.2734375 C-523.38543534 296.52024881 -523.67022928 294.76720904 -523.9559021 293.01431274 C-524.70384391 288.41081412 -525.44028569 283.80555112 -526.17401123 279.19976807 C-527.06791392 273.60080877 -527.97419277 268.00384252 -528.87987328 262.40677834 C-529.58428884 258.05315057 -530.28644834 253.69920353 -530.9815979 249.34408569 C-531.1099855 248.54359299 -531.23837311 247.74310028 -531.37065125 246.91835022 C-531.6097847 245.42727875 -531.84762764 243.93599949 -532.08390808 242.44447327 C-532.59731447 239.25304585 -533.18919193 236.12834736 -534 233 C-534.38371997 228.46177346 -534.56709826 224.37297473 -532.8125 220.125 C-529.57418304 216.32835253 -527.66073448 214.13601742 -522.50341797 213.71362305 C-517.14030489 213.84025274 -512.2427293 215.36973663 -507.1328125 216.89453125 C-504.89750721 217.54133831 -502.66215294 218.18797614 -500.42675781 218.83447266 C-499.23022583 219.18447327 -498.03369385 219.53447388 -496.80090332 219.89508057 C-492.83700635 221.04738212 -488.86690749 222.17529985 -484.89355469 223.29443359 C-478.42422295 225.11709393 -471.95863882 226.95237975 -465.49605942 228.79884148 C-461.78314313 229.85937383 -458.06926194 230.91623629 -454.35302734 231.96508789 C-450.6778951 233.00245663 -447.00544725 234.0488613 -443.33469009 235.10160255 C-441.95701377 235.49506524 -440.57843584 235.88538677 -439.19890976 236.27231407 C-422.07620174 241.08034131 -422.07620174 241.08034131 -418 246.8125 C-416.75701732 250.77450728 -416.84022849 253.01328542 -418 257 C-424.579526 265.43001769 -435.71434176 270.1490688 -445 275 C-432.23565589 287.46108755 -417.47991054 297.23417134 -402 306 C-401.05882324 306.54237305 -401.05882324 306.54237305 -400.09863281 307.09570312 C-343.84838521 339.29549151 -274.68816934 346.07501987 -212.4296875 329.5625 C-209.34784726 328.71740301 -206.28112161 327.83079813 -203.21875 326.91796875 C-200 326 -200 326 -198 326 C-197.67 325.34 -197.34 324.68 -197 324 C-195.07080078 323.30444336 -195.07080078 323.30444336 -192.5703125 322.65234375 C-187.08366055 321.09769477 -182.04225407 318.95445146 -176.875 316.5625 C-176.03324219 316.18029297 -175.19148438 315.79808594 -174.32421875 315.40429688 C-171.87479464 314.28591641 -169.43625629 313.1467397 -167 312 C-166.23204102 311.64663574 -165.46408203 311.29327148 -164.67285156 310.92919922 C-161.14879296 309.25777494 -159.20519829 308.30779743 -157 305 C-156.01 305 -155.02 305 -154 305 C-152.30280873 304.05273046 -150.63064764 303.05771739 -149 302 C-149.33 301.34 -149.66 300.68 -150 300 C-149.14148438 299.92265625 -148.28296875 299.8453125 -147.3984375 299.765625 C-143.43943846 298.87371257 -140.80374986 297.14455066 -137.625 294.75 C-137.02631104 294.30962402 -136.42762207 293.86924805 -135.81079102 293.41552734 C-120.03253432 281.68104674 -104.71705547 269.06353029 -92 254 C-91.51031738 253.42266113 -91.02063477 252.84532227 -90.51611328 252.25048828 C-78.59721203 238.1282754 -68.70577228 223.28693266 -60 207 C-59.65727051 206.36513672 -59.31454102 205.73027344 -58.96142578 205.07617188 C-33.56248835 157.65833752 -23.10309429 96.10069942 -34 43 C-34.63718601 40.99041337 -35.29635193 38.98729058 -36 37 C-36.37890625 34.7265625 -36.37890625 34.7265625 -36.5625 32.625 C-36.9499788 28.40227186 -37.46423696 24.20640403 -38 20 C-36.90042969 19.78085937 -35.80085938 19.56171875 -34.66796875 19.3359375 C-19.86736459 16.23255796 -10.35883401 11.37000002 0 0 Z " fill="#AD46FF" transform="translate(798,428)"/>
<path d="M0 0 C5.58696525 5.51564229 8.62449285 12.50198632 8.9375 20.36328125 C8.46175077 27.64677535 6.21577436 33.90381051 1.5859375 39.5625 C-7.59320709 47.07270921 -15.39561988 48.82190224 -27.1640625 47.8125 C-35.08275801 45.6737219 -40.06971125 40.77289712 -44.1640625 33.8125 C-47.74039233 26.40438821 -48.31246081 19.06281432 -45.9765625 11.1875 C-42.88693611 3.00070195 -38.07006748 -2.30212275 -30.1640625 -6.1875 C-19.17646606 -10.07516531 -8.71135193 -7.54774174 0 0 Z " fill="#AD46FF" transform="translate(671.1640625,607.1875)"/>
<path d="M0 0 C0 0.66 0 1.32 0 2 C1.0209375 2.309375 1.0209375 2.309375 2.0625 2.625 C9.47857619 6.09635481 13.73979457 11.59044221 17 19 C19.6306935 27.51205286 17.97393996 35.23275371 14 43 C10.48286828 48.95206907 4.03529385 51.98235308 -2 55 C-11.22549465 55.80723078 -19.33522844 55.75901166 -27 50 C-33.61915258 43.99629045 -37.29554163 37.21552939 -37.9921875 28.25 C-38.01904496 20.51505015 -34.59645194 14.04105112 -30 8 C-20.94945422 -0.60775978 -11.96933565 -1.38435377 0 0 Z " fill="#AD46FF" transform="translate(415,600)"/>
<path d="M0 0 C0.33 0 0.66 0 1 0 C1 55.44 1 110.88 1 168 C0.67 168 0.34 168 0 168 C-0.06058594 167.10539063 -0.12117188 166.21078125 -0.18359375 165.2890625 C-0.26738281 164.07992187 -0.35117187 162.87078125 -0.4375 161.625 C-0.55931641 159.84996094 -0.55931641 159.84996094 -0.68359375 158.0390625 C-0.89118435 155.15972009 -1.19228847 152.30165758 -1.51841736 149.43353271 C-2.06862396 143.94707222 -2.09545029 138.53341782 -2.02172852 133.02441406 C-2.01212097 131.9756459 -2.00251343 130.92687775 -1.99261475 129.84632874 C-1.95983166 126.40268817 -1.91936847 122.95918315 -1.87890625 119.515625 C-1.85454752 117.09397886 -1.83070707 114.67232747 -1.80735779 112.25067139 C-1.74469703 105.88049802 -1.67567584 99.51040984 -1.60510254 93.14031982 C-1.50741211 84.21955983 -1.41837869 75.29870866 -1.32835388 66.37786865 C-1.2805025 61.63846194 -1.2303232 56.89908962 -1.17811584 52.159729 C-1.05626061 40.80519838 -0.96542418 29.45354886 -1.0309763 18.09828568 C-1.05239903 12.02290909 -0.80774975 6.02927489 0 0 Z " fill="#AD46FF" transform="translate(307,428)"/>
<path d="M0 0 C21.78 0 43.56 0 66 0 C66 0.66 66 1.32 66 2 C53.59940033 2.99510985 41.5127998 2.85957233 29.10058594 2.16162109 C23.27800038 1.85811309 17.45137143 1.65355729 11.625 1.4375 C9.38802027 1.35287947 7.15104105 1.26824537 4.9140625 1.18359375 C3.27604589 1.12228282 1.63802679 1.06103838 0 1 C0 0.67 0 0.34 0 0 Z " fill="#AD46FF" transform="translate(384,440)"/>
<path d="M0 0 C6.94170022 -0.05058729 13.88335315 -0.08568579 20.82519531 -0.10986328 C23.18816911 -0.11993924 25.55113039 -0.13360029 27.9140625 -0.15087891 C31.30471888 -0.17505724 34.69521084 -0.18646699 38.0859375 -0.1953125 C39.14743011 -0.20563507 40.20892273 -0.21595764 41.30258179 -0.22659302 C42.77388046 -0.22681961 42.77388046 -0.22681961 44.27490234 -0.22705078 C45.14094086 -0.231492 46.00697937 -0.23593323 46.89926147 -0.24050903 C49 0 49 0 51 2 C40.64457803 2.67666701 30.31662098 3.10465044 19.9375 3.125 C18.5306897 3.13176758 18.5306897 3.13176758 17.09545898 3.13867188 C11.00836178 3.12572864 5.04401462 2.71857073 -1 2 C-0.67 1.34 -0.34 0.68 0 0 Z " fill="#AD46FF" transform="translate(567,439)"/>
<path d="M0 0 C7.22655492 -0.02529174 14.4530985 -0.04284219 21.6796875 -0.05493164 C24.13965278 -0.05996989 26.59961505 -0.0668006 29.05957031 -0.07543945 C32.58920025 -0.08752723 36.11879069 -0.09323329 39.6484375 -0.09765625 C40.75367767 -0.10281754 41.85891785 -0.10797882 42.99765015 -0.11329651 C44.01855743 -0.11337204 45.03946472 -0.11344757 46.09130859 -0.11352539 C46.99287689 -0.115746 47.89444519 -0.11796661 48.82333374 -0.12025452 C51 0 51 0 53 1 C54.70363822 1.22622081 56.41328701 1.40888473 58.125 1.5625 C59.03507813 1.64628906 59.94515625 1.73007813 60.8828125 1.81640625 C61.58148437 1.87699219 62.28015625 1.93757812 63 2 C63 2.33 63 2.66 63 3 C40.56 3 18.12 3 -5 3 C-5 2.67 -5 2.34 -5 2 C-3.35 1.67 -1.7 1.34 0 1 C0 0.67 0 0.34 0 0 Z " fill="#AD46FF" transform="translate(479,208)"/>
<path d="M0 0 C0.33 0 0.66 0 1 0 C1.16415919 16.68951793 0.65730011 33.324506 0 50 C-2.17648962 46.47513273 -2.24515184 43.63708306 -2.23046875 39.5390625 C-2.22853516 38.26160156 -2.22660156 36.98414063 -2.22460938 35.66796875 C-2.21840576 35.00200684 -2.21220215 34.33604492 -2.20581055 33.64990234 C-2.18787446 31.66641074 -2.18653373 29.6827912 -2.18554688 27.69921875 C-2.07972373 4.15944745 -2.07972373 4.15944745 0 0 Z " fill="#AD46FF" transform="translate(257,476)"/>
<path d="M0 0 C0.33 0 0.66 0 1 0 C1 20.13 1 40.26 1 61 C0.67 61 0.34 61 0 61 C-0.33677326 53.11687261 -0.65649152 45.23318594 -0.96435547 37.34887695 C-1.06987425 34.6666706 -1.18081554 31.98477009 -1.29638672 29.30297852 C-1.46047146 25.44841381 -1.61050978 21.59351923 -1.7578125 17.73828125 C-1.81188263 16.53915604 -1.86595276 15.34003082 -1.92166138 14.10456848 C-1.96185394 12.98378403 -2.00204651 11.86299957 -2.04345703 10.70825195 C-2.08342804 9.72452103 -2.12339905 8.7407901 -2.1645813 7.72724915 C-1.98647399 4.77586282 -1.24089082 2.66676281 0 0 Z " fill="#AD46FF" transform="translate(558,447)"/>
<path d="M0 0 C0.33 0 0.66 0 1 0 C1.02513587 4.3009404 1.04306094 8.60183937 1.05493164 12.90283203 C1.05989187 14.35921984 1.06666215 15.81560285 1.07543945 17.27197266 C1.22777527 43.2407491 1.22777527 43.2407491 -2 54 C-2.33 54 -2.66 54 -3 54 C-3.17291697 43.2983611 -2.63149942 32.67910627 -2 22 C-1.67 22 -1.34 22 -1 22 C-0.67 14.74 -0.34 7.48 0 0 Z " fill="#AD46FF" transform="translate(813,501)"/>
<path d="M0 0 C-1.05415344 1.48445129 -1.05415344 1.48445129 -3 3 C-6.17008972 3.32279968 -6.17008972 3.32279968 -10.13354492 3.2487793 C-10.85574722 3.23946381 -11.57794952 3.23014832 -12.32203674 3.22055054 C-14.70865809 3.18618094 -17.09426673 3.13028883 -19.48046875 3.07421875 C-21.13525742 3.0461858 -22.79006934 3.01949537 -24.44490051 2.99409485 C-28.8001193 2.92363192 -33.15478311 2.83491519 -37.50958252 2.74243164 C-41.95346294 2.65127512 -46.39762579 2.57733211 -50.84179688 2.50195312 C-59.56156742 2.35151 -68.28082688 2.18178757 -77 2 C-77 1.67 -77 1.34 -77 1 C-67.84638096 0.86911527 -58.69275552 0.7386906 -49.53912163 0.60884857 C-45.28844763 0.54853946 -41.03777599 0.48807359 -36.78710938 0.42724609 C-32.6828068 0.3685189 -28.57849849 0.31020792 -24.47418594 0.25218201 C-22.91055212 0.2300032 -21.34692039 0.20767599 -19.78329086 0.18519592 C-17.58844282 0.15366661 -15.39358781 0.1226713 -13.19873047 0.09179688 C-11.95074677 0.07403198 -10.70276306 0.05626709 -9.41696167 0.03796387 C-6.27759897 0.00308424 -3.13951899 -0.00706346 0 0 Z " fill="#AD46FF" transform="translate(654,517)"/>
<path d="M0 0 C2.62164112 1.65718337 3.59557145 2.33158575 5 5 C5.62854604 9.61598083 5.46877907 14.16500082 5.3125 18.8125 C5.28994141 20.07771484 5.26738281 21.34292969 5.24414062 22.64648438 C5.18529078 25.76552619 5.1031137 28.88215902 5 32 C4.67 32 4.34 32 4 32 C3.970271 30.94872925 3.970271 30.94872925 3.93994141 29.8762207 C3.84443834 26.68794838 3.73486129 23.50030853 3.625 20.3125 C3.5940625 19.20970703 3.563125 18.10691406 3.53125 16.97070312 C3.49257813 15.90400391 3.45390625 14.83730469 3.4140625 13.73828125 C3.36693115 12.26935425 3.36693115 12.26935425 3.31884766 10.77075195 C3.07003017 7.53994964 3.07003017 7.53994964 1 3 C-2.63 3 -6.26 3 -10 3 C-9.67 2.01 -9.34 1.02 -9 0 C-5.37580435 -1.20806522 -3.66716248 -1.0268055 0 0 Z " fill="#AD46FF" transform="translate(554,344)"/>
<path d="M0 0 C0.33 0 0.66 0 1 0 C4.43699337 19.57858722 4.43699337 19.57858722 1.6875 26.125 C1.130625 26.74375 0.57375 27.3625 0 28 C-0.99 28 -1.98 28 -3 28 C-2.484375 27.13375 -1.96875 26.2675 -1.4375 25.375 C0.73312264 20.42799956 -0.21853195 15.57814016 -0.73828125 10.3359375 C-1.02888994 6.63176107 -0.77350369 3.60968386 0 0 Z " fill="#AD46FF" transform="translate(773,363)"/>
<path d="M0 0 C-0.66 0.99 -1.32 1.98 -2 3 C-4.49190826 3.1958999 -6.71635932 3.20850337 -9.1953125 3.07421875 C-9.90275604 3.04777786 -10.61019958 3.02133698 -11.33908081 2.99409485 C-13.60190191 2.90621785 -15.86313773 2.79711517 -18.125 2.6875 C-19.65749501 2.62425263 -21.19004768 2.56238618 -22.72265625 2.50195312 C-26.48262767 2.35066006 -30.24131349 2.18032347 -34 2 C-34 1.67 -34 1.34 -34 1 C-10.21122564 -0.19388403 -10.21122564 -0.19388403 0 0 Z " fill="#AD46FF" transform="translate(542,766)"/>
<path d="M0 0 C0 3 0 3 -1 6 C-1.0685495 7.89470816 -1.08480372 9.7916834 -1.0625 11.6875 C-1.05347656 12.68136719 -1.04445313 13.67523437 -1.03515625 14.69921875 C-1.02355469 15.45847656 -1.01195312 16.21773437 -1 17 C-0.34 17 0.32 17 1 17 C1.91297308 21.97063121 1.91297308 26.02936879 1 31 C0.67 31 0.34 31 0 31 C-4.68685121 8.51427336 -4.68685121 8.51427336 -1.5 1.875 C-1.005 1.25625 -0.51 0.6375 0 0 Z " fill="#AD46FF" transform="translate(267,646)"/>
<path d="M0 0 C13.86 0.99 13.86 0.99 28 2 C28 2.33 28 2.66 28 3 C24.79224458 3.19840395 21.58379499 3.38175425 18.375 3.5625 C17.47136719 3.61857422 16.56773437 3.67464844 15.63671875 3.73242188 C10.91943783 3.99066718 6.65068353 4.04292737 2 3 C2 2.34 2 1.68 2 1 C1.34 0.67 0.68 0.34 0 0 Z " fill="#AD46FF" transform="translate(480,764)"/>
<path d="M0 0 C1.01320313 0.18304688 2.02640625 0.36609375 3.0703125 0.5546875 C4.45863281 0.83699219 4.45863281 0.83699219 5.875 1.125 C6.63554688 1.25132812 7.39609375 1.37765625 8.1796875 1.5078125 C8.73914063 1.71148437 9.29859375 1.91515625 9.875 2.125 C10.205 3.115 10.535 4.105 10.875 5.125 C3.19418309 3.8649707 -4.47140892 2.54121567 -12.125 1.125 C-12.125 0.795 -12.125 0.465 -12.125 0.125 C-7.76608062 -0.79883067 -4.37248886 -0.81634702 0 0 Z " fill="#AD46FF" transform="translate(560.125,257.875)"/>
<path d="M0 0 C6.6 0 13.2 0 20 0 C20 0.33 20 0.66 20 1 C11.97649696 2.18396883 4.13544686 3.28545428 -4 3 C-2.68 2.67 -1.36 2.34 0 2 C0 1.34 0 0.68 0 0 Z " fill="#AD46FF" transform="translate(548,810)"/>
<path d="M0 0 C-5.0438625 4.29662361 -9.86664781 4.12274161 -16.3125 4.0625 C-17.56675781 4.05347656 -18.82101562 4.04445313 -20.11328125 4.03515625 C-21.06589844 4.02355469 -22.01851562 4.01195312 -23 4 C-19.46584949 1.90242439 -16.10768301 1.41896271 -12.0625 0.875 C-10.85722656 0.70742188 -9.65195312 0.53984375 -8.41015625 0.3671875 C-5.56446373 0.06077845 -2.85651173 -0.07588456 0 0 Z " fill="#AD46FF" transform="translate(583,806)"/>
<path d="M0 0 C2.49118953 3.7367843 2.2065226 5.74451819 2.125 10.1875 C2.10695313 11.45980469 2.08890625 12.73210938 2.0703125 14.04296875 C2.03550781 15.50669922 2.03550781 15.50669922 2 17 C1.67 17 1.34 17 1 17 C0.67 18.65 0.34 20.3 0 22 C-0.33 22 -0.66 22 -1 22 C-1.14715692 14.6094524 -0.70776992 7.35575165 0 0 Z " fill="#AD46FF" transform="translate(767,530)"/>
<path d="M0 0 C0.66 0.99 1.32 1.98 2 3 C0.72125 3.2475 -0.5575 3.495 -1.875 3.75 C-5.26747318 4.51990586 -5.26747318 4.51990586 -7.5 7.125 C-7.665 7.74375 -7.83 8.3625 -8 9 C-8.33 6.36 -8.66 3.72 -9 1 C-5.73842267 -0.08719244 -3.41589896 -0.29071481 0 0 Z " fill="#AD46FF" transform="translate(769,447)"/>
<path d="M0 0 C6.74029309 -0.37292605 11.88661433 -0.0011166 18 3 C18.33 3.99 18.66 4.98 19 6 C17.783125 5.67 16.56625 5.34 15.3125 5 C12.12789396 4.19677787 9.3027157 3.79358027 6 4 C6.33 3.34 6.66 2.68 7 2 C4.69 1.67 2.38 1.34 0 1 C0 0.67 0 0.34 0 0 Z " fill="#AD46FF" transform="translate(410,579)"/>
<path d="M0 0 C0.66 0 1.32 0 2 0 C4.78324764 6.4643171 5.31207478 10.30715195 3 17 C2.49056722 14.98331984 1.99415901 12.97246392 1.5625 10.9375 C1.01897401 8.70268087 1.01897401 8.70268087 -1 6 C-0.67 5.01 -0.34 4.02 0 3 C0 2.01 0 1.02 0 0 Z " fill="#AD46FF" transform="translate(450,607)"/>
<path d="M0 0 C0.33 0 0.66 0 1 0 C1.33719047 2.56204544 1.66987153 5.12454318 2 7.6875 C2.09539062 8.40873047 2.19078125 9.12996094 2.2890625 9.87304688 C2.76683735 13.60992871 3.11919794 17.22291531 3 21 C2.67 20.01 2.34 19.02 2 18 C1.34 18 0.68 18 0 18 C0 12.06 0 6.12 0 0 Z " fill="#AD46FF" transform="translate(213,526)"/>
<path d="M0 0 C1 3 1 3 0 6 C-0.14777936 7.69867188 -0.24747066 9.40177489 -0.31640625 11.10546875 C-0.37924805 12.57983398 -0.37924805 12.57983398 -0.44335938 14.08398438 C-0.48267578 15.10814453 -0.52199219 16.13230469 -0.5625 17.1875 C-0.60568359 18.22326172 -0.64886719 19.25902344 -0.69335938 20.32617188 C-0.79944366 22.8839819 -0.90150146 25.44188845 -1 28 C-1.33 28 -1.66 28 -2 28 C-2.05783842 23.70838953 -2.0935412 19.41687855 -2.125 15.125 C-2.14175781 13.90167969 -2.15851562 12.67835938 -2.17578125 11.41796875 C-2.18222656 10.25136719 -2.18867187 9.08476562 -2.1953125 7.8828125 C-2.20578613 6.80402832 -2.21625977 5.72524414 -2.22705078 4.61376953 C-2 2 -2 2 0 0 Z " fill="#AD46FF" transform="translate(543,348)"/>
<path d="M0 0 C0.33 0.66 0.66 1.32 1 2 C1.66 2 2.32 2 3 2 C4.33257403 11.41002278 4.33257403 11.41002278 3 16 C2.67 16 2.34 16 2 16 C1.86722656 15.30132812 1.73445312 14.60265625 1.59765625 13.8828125 C1.42105469 12.97273438 1.24445312 12.06265625 1.0625 11.125 C0.88847656 10.22007812 0.71445312 9.31515625 0.53515625 8.3828125 C0.10036299 6.00043683 0.10036299 6.00043683 -1 4 C-0.5625 1.875 -0.5625 1.875 0 0 Z " fill="#AD46FF" transform="translate(763,461)"/>
<path d="M0 0 C6.19887485 -0.37952295 10.4477112 0.1647887 16 3 C16 3.33 16 3.66 16 4 C10.43109483 3.52013969 5.32932432 2.70084819 0 1 C0 0.67 0 0.34 0 0 Z " fill="#AD46FF" transform="translate(573,217)"/>
<path d="M0 0 C1.29132785 3.87398355 0.41113572 6.81988786 -0.4375 10.6875 C-0.58509766 11.38939453 -0.73269531 12.09128906 -0.88476562 12.81445312 C-1.2495932 14.54444194 -1.62388689 16.27242963 -2 18 C-2.33 18 -2.66 18 -3 18 C-3.8780651 13.4340615 -4.2209374 11.04994467 -2 7 C-1.83275263 3.83304044 -1.83275263 3.83304044 -2 1 C-1.34 0.67 -0.68 0.34 0 0 Z " fill="#AD46FF" transform="translate(808,571)"/>
<path d="M0 0 C1.32830615 3.98491845 0.23204404 5.40048548 -1.4375 9.1875 C-1.91058594 10.27417969 -2.38367188 11.36085938 -2.87109375 12.48046875 C-3.42990234 13.72763672 -3.42990234 13.72763672 -4 15 C-4.33 15 -4.66 15 -5 15 C-4.125 7.375 -4.125 7.375 -3 4 C-2.34 4 -1.68 4 -1 4 C-0.67 2.68 -0.34 1.36 0 0 Z " fill="#AD46FF" transform="translate(754,602)"/>
<path d="M0 0 C1.21236328 0.01353516 1.21236328 0.01353516 2.44921875 0.02734375 C3.37154297 0.04474609 3.37154297 0.04474609 4.3125 0.0625 C0.90391414 3.47108586 -4.00951465 3.99258394 -8.6875 4.1875 C-9.3475 4.14625 -10.0075 4.105 -10.6875 4.0625 C-7.4284026 0.49301238 -4.73606476 -0.06863862 0 0 Z " fill="#AD46FF" transform="translate(430.6875,218.9375)"/>
<path d="M0 0 C-2.28855702 0.86343731 -4.5801928 1.7159811 -6.875 2.5625 C-7.52597656 2.80935547 -8.17695313 3.05621094 -8.84765625 3.31054688 C-10.54497665 3.93173115 -12.27156776 4.47152252 -14 5 C-14.66 4.67 -15.32 4.34 -16 4 C-13.71388798 1.34139049 -11.97866809 0.46434206 -8.5625 -0.25 C-7.80066406 -0.42015625 -7.03882813 -0.5903125 -6.25390625 -0.765625 C-3.88563484 -1.01189239 -2.25334939 -0.71860801 0 0 Z " fill="#AD46FF" transform="translate(433,268)"/>
<path d="M0 0 C1.69921875 1.515625 1.69921875 1.515625 3 3 C-3.11485027 3.09706112 -8.93303301 2.77040851 -15 2 C-15 1.67 -15 1.34 -15 1 C-5.05188679 -0.39622642 -5.05188679 -0.39622642 0 0 Z " fill="#AD46FF" transform="translate(496,810)"/>
<path d="M0 0 C3.49238487 4.65651317 3.25378455 5.69011529 2.6875 11.25 C2.50767578 13.14492188 2.50767578 13.14492188 2.32421875 15.078125 C2.21722656 16.04234375 2.11023438 17.0065625 2 18 C1.67 18 1.34 18 1 18 C0.67 12.06 0.34 6.12 0 0 Z " fill="#AD46FF" transform="translate(766,477)"/>
<path d="M0 0 C0.66 0.33 1.32 0.66 2 1 C0.625 3 0.625 3 -1 5 C-1.66 5 -2.32 5 -3 5 C-3.268125 5.61875 -3.53625 6.2375 -3.8125 6.875 C-5 9 -5 9 -8 11 C-7.43040847 7.37386801 -6.07625466 5.74482259 -3.4375 3.25 C-2.79683594 2.63640625 -2.15617187 2.0228125 -1.49609375 1.390625 C-1.00238281 0.93171875 -0.50867188 0.4728125 0 0 Z " fill="#AD46FF" transform="translate(291,301)"/>
<path d="M0 0 C4.86896303 0.59619955 9.32790951 1.56976822 14 3 C14 3.33 14 3.66 14 4 C12.741875 4.020625 11.48375 4.04125 10.1875 4.0625 C9.47980469 4.07410156 8.77210938 4.08570313 8.04296875 4.09765625 C6 4 6 4 3 3 C3 2.34 3 1.68 3 1 C2.01 0.67 1.02 0.34 0 0 Z " fill="#AD46FF" transform="translate(437,800)"/>
<path d="M0 0 C1.41910652 0.25774371 2.83524899 0.53183165 4.25 0.8125 C5.03890625 0.96332031 5.8278125 1.11414063 6.640625 1.26953125 C9 2 9 2 13 5 C7.06 4.01 7.06 4.01 1 3 C0.67 2.01 0.34 1.02 0 0 Z " fill="#AD46FF" transform="translate(420,794)"/>
<path d="M0 0 C0.99020864 3.20142644 1.0200144 5.79985601 0.6875 9.125 C0.60886719 9.99382813 0.53023437 10.86265625 0.44921875 11.7578125 C0 14 0 14 -2 16 C-2.2358396 10.22192976 -1.86783046 5.48675196 0 0 Z " fill="#AD46FF" transform="translate(626,616)"/>
<path d="M0 0 C1.485 0.99 1.485 0.99 3 2 C3 2.66 3 3.32 3 4 C6.3 4.33 9.6 4.66 13 5 C13 5.33 13 5.66 13 6 C11.20866022 6.05391993 9.41686101 6.09275571 7.625 6.125 C6.62726563 6.14820313 5.62953125 6.17140625 4.6015625 6.1953125 C2 6 2 6 0 4 C0 2.68 0 1.36 0 0 Z " fill="#AD46FF" transform="translate(282,748)"/>
<path d="M0 0 C2.68433048 2.45091043 3.91789741 4.28241384 4.09765625 8.04296875 C4.06510417 10.02864583 4.03255208 12.01432292 4 14 C1.01520806 9.52281208 0 5.36175907 0 0 Z " fill="#AD46FF" transform="translate(800,437)"/>
<path d="M0 0 C0.33 0 0.66 0 1 0 C1.33 6.93 1.66 13.86 2 21 C1.01 21.33 0.02 21.66 -1 22 C-0.67 14.74 -0.34 7.48 0 0 Z " fill="#AD46FF" transform="translate(542,356)"/>
<path d="M0 0 C2.53435666 2.2037884 3.53691481 3.66578661 4 7 C4.03888349 9.33300933 4.0448635 11.66709801 4 14 C1.01520806 9.52281208 0 5.36175907 0 0 Z " fill="#AD46FF" transform="translate(261,556)"/>
<path d="M0 0 C0.33 0 0.66 0 1 0 C0.67 4.95 0.34 9.9 0 15 C-0.33 15 -0.66 15 -1 15 C-1.22134176 12.87631556 -1.42670007 10.75095976 -1.625 8.625 C-1.74101562 7.44164062 -1.85703125 6.25828125 -1.9765625 5.0390625 C-1.98429687 4.03617187 -1.99203125 3.03328125 -2 2 C-1.34 1.34 -0.68 0.68 0 0 Z " fill="#AD46FF" transform="translate(259,468)"/>
<path d="M0 0 C-0.99 0.33 -1.98 0.66 -3 1 C-3 1.66 -3 2.32 -3 3 C-6.69541586 3.95024979 -9.30458414 3.95024979 -13 3 C-8.55314722 0.61775744 -5.04771183 -0.14021422 0 0 Z " fill="#AD46FF" transform="translate(443,216)"/>
<path d="M0 0 C5.50366792 -0.32374517 9.43672206 -0.53286034 14 3 C10.45332822 4.25127906 8.27746562 3.72285053 4.75 2.5625 C3.85796875 2.27503906 2.9659375 1.98757813 2.046875 1.69140625 C1.37140625 1.46324219 0.6959375 1.23507812 0 1 C0 0.67 0 0.34 0 0 Z " fill="#AD46FF" transform="translate(426,798)"/>
<path d="M0 0 C-1 3 -1 3 -3.8125 4.75 C-7.13982105 6.05483179 -7.79584277 6.02866653 -11 5 C-9.54462432 4.16151196 -8.08559627 3.32936066 -6.625 2.5 C-5.81289063 2.0359375 -5.00078125 1.571875 -4.1640625 1.09375 C-2 0 -2 0 0 0 Z " fill="#AD46FF" transform="translate(653,781)"/>
<path d="M0 0 C0.33 0 0.66 0 1 0 C1.05437607 1.58294782 1.09296271 3.16644256 1.125 4.75 C1.14820313 5.63171875 1.17140625 6.5134375 1.1953125 7.421875 C0.99139502 10.1135858 0.36551721 11.69904974 -1 14 C-2.12029814 8.51053913 -1.79217969 5.16569441 0 0 Z " fill="#AD46FF" transform="translate(432,623)"/>
<path d="M0 0 C0.66 0.33 1.32 0.66 2 1 C1.40075776 5.19469571 0.42500059 9.00999834 -1 13 C-1.33 13 -1.66 13 -2 13 C-2.19294408 8.17639811 -1.75747614 4.50353262 0 0 Z " fill="#AD46FF" transform="translate(271,417)"/>
<path d="M0 0 C1.258125 -0.020625 2.51625 -0.04125 3.8125 -0.0625 C4.52019531 -0.07410156 5.22789062 -0.08570313 5.95703125 -0.09765625 C8 0 8 0 11 1 C11 1.66 11 2.32 11 3 C11.66 3.33 12.32 3.66 13 4 C11.39431334 3.71682074 9.79047953 3.42312209 8.1875 3.125 C7.29417969 2.96257812 6.40085937 2.80015625 5.48046875 2.6328125 C3 2 3 2 0 0 Z " fill="#AD46FF" transform="translate(720,382)"/>
<path d="M0 0 C0.99 1.485 0.99 1.485 2 3 C2.66 2.67 3.32 2.34 4 2 C4 4.31 4 6.62 4 9 C3.01 9 2.02 9 1 9 C-0.4783226 6.04335481 -0.06032783 3.25770263 0 0 Z " fill="#AD46FF" transform="translate(664,354)"/>
<path d="M0 0 C0.33 0.99 0.66 1.98 1 3 C-3.62 2.34 -8.24 1.68 -13 1 C-13 0.67 -13 0.34 -13 0 C-8.37078475 -1.0161692 -4.65537393 -0.83796731 0 0 Z " fill="#AD46FF" transform="translate(561,258)"/>
<path d="M0 0 C1.75070517 0.11470137 3.50057536 0.24219028 5.25 0.375 C6.22453125 0.44460937 7.1990625 0.51421875 8.203125 0.5859375 C10.89633189 0.98465249 12.66963279 1.63507063 15 3 C12.87561661 3.08078641 10.7503677 3.13909141 8.625 3.1875 C7.44164062 3.22230469 6.25828125 3.25710937 5.0390625 3.29296875 C3.53472656 3.14794922 3.53472656 3.14794922 2 3 C1.34 2.01 0.68 1.02 0 0 Z " fill="#AD46FF" transform="translate(558,213)"/>
<path d="M0 0 C0.8971875 0.309375 0.8971875 0.309375 1.8125 0.625 C0.52725739 1.48880259 -0.76592419 2.34080369 -2.0625 3.1875 C-2.78179688 3.66316406 -3.50109375 4.13882813 -4.2421875 4.62890625 C-4.88414062 4.95761719 -5.52609375 5.28632812 -6.1875 5.625 C-6.8475 5.295 -7.5075 4.965 -8.1875 4.625 C-3.2421875 -0.55580357 -3.2421875 -0.55580357 0 0 Z " fill="#AD46FF" transform="translate(649.1875,731.375)"/>
<path d="M0 0 C0.66 0 1.32 0 2 0 C0.62845496 2.95409701 -0.98863724 5.44008376 -3 8 C-3.99 7.67 -4.98 7.34 -6 7 C-5.04882866 5.8274869 -4.08882991 4.66212985 -3.125 3.5 C-2.59132812 2.8503125 -2.05765625 2.200625 -1.5078125 1.53125 C-0.76144531 0.77328125 -0.76144531 0.77328125 0 0 Z " fill="#AD46FF" transform="translate(246,599)"/>
<path d="M0 0 C1.67110042 2.96178773 2.32682752 5.37071192 2.625 8.75 C2.69976563 9.54921875 2.77453125 10.3484375 2.8515625 11.171875 C2.90054688 11.77515625 2.94953125 12.3784375 3 13 C0.75393573 11.22555028 0.04918998 10.41647515 -0.29296875 7.51953125 C-0.25816406 6.62621094 -0.22335937 5.73289062 -0.1875 4.8125 C-0.16042969 3.91144531 -0.13335938 3.01039063 -0.10546875 2.08203125 C-0.07066406 1.39496094 -0.03585937 0.70789063 0 0 Z " fill="#AD46FF" transform="translate(762,450)"/>
<path d="M0 0 C2.74277578 3.19990508 4.6302836 6.00499382 6 10 C3.54896452 9.01958581 2.23241214 8.3486182 0.75 6.125 C0 4 0 4 0 0 Z " fill="#AD46FF" transform="translate(653,445)"/>
<path d="M0 0 C1.35158203 0.15275391 1.35158203 0.15275391 2.73046875 0.30859375 C3.41753906 0.39238281 4.10460937 0.47617187 4.8125 0.5625 C4.8125 0.8925 4.8125 1.2225 4.8125 1.5625 C3.02241533 1.78401549 1.23031838 1.98932213 -0.5625 2.1875 C-1.56023437 2.30351562 -2.55796875 2.41953125 -3.5859375 2.5390625 C-4.44445312 2.54679687 -5.30296875 2.55453125 -6.1875 2.5625 C-6.8475 1.9025 -7.5075 1.2425 -8.1875 0.5625 C-4.98734144 -0.50421952 -3.30205706 -0.38595472 0 0 Z " fill="#AD46FF" transform="translate(472.1875,256.4375)"/>
<path d="M0 0 C3.81684226 1.55500981 6.19195732 4.03595495 9 7 C6.75 6.875 6.75 6.875 4 6 C1.6875 2.9375 1.6875 2.9375 0 0 Z " fill="#AD46FF" transform="translate(336,746)"/>
<path d="M0 0 C0.66 0.33 1.32 0.66 2 1 C0.25 3.0625 0.25 3.0625 -2 5 C-4.1875 4.875 -4.1875 4.875 -6 4 C-6.33 3.34 -6.66 2.68 -7 2 C-6.030625 1.855625 -5.06125 1.71125 -4.0625 1.5625 C-1.13513227 1.32437659 -1.13513227 1.32437659 0 0 Z " fill="#AD46FF" transform="translate(655,726)"/>
<path d="M0 0 C1.12377697 3.30435084 0.89554742 5.0506862 -0.4375 8.25 C-0.72496094 8.95640625 -1.01242187 9.6628125 -1.30859375 10.390625 C-1.53675781 10.92171875 -1.76492188 11.4528125 -2 12 C-2.33 12 -2.66 12 -3 12 C-3 9.69 -3 7.38 -3 5 C-2.34 5 -1.68 5 -1 5 C-0.67 3.35 -0.34 1.7 0 0 Z " fill="#AD46FF" transform="translate(758,589)"/>
<path d="M0 0 C0 0.99 0 1.98 0 3 C-3.63 2.67 -7.26 2.34 -11 2 C-11 1.67 -11 1.34 -11 1 C-7.27569643 0.30710631 -3.78916254 -0.11144596 0 0 Z " fill="#AD46FF" transform="translate(480,808)"/>
<path d="M0 0 C2.97 0.33 5.94 0.66 9 1 C9 1.66 9 2.32 9 3 C6.1875 3.1875 6.1875 3.1875 3 3 C2.01 2.01 1.02 1.02 0 0 Z " fill="#AD46FF" transform="translate(452,804)"/>
<path d="M0 0 C0.33 0 0.66 0 1 0 C1.33 3.3 1.66 6.6 2 10 C1.67 9.34 1.34 8.68 1 8 C0.34 8 -0.32 8 -1 8 C-1.04241723 5.66705225 -1.04092937 3.33297433 -1 1 C-0.67 0.67 -0.34 0.34 0 0 Z " fill="#AD46FF" transform="translate(218,557)"/>
<path d="M0 0 C1.46726798 3.81489674 0.43336419 6.29011622 -1 10 C-1.33 10 -1.66 10 -2 10 C-2.1953125 3.9453125 -2.1953125 3.9453125 -2 2 C-1.34 1.34 -0.68 0.68 0 0 Z " fill="#AD46FF" transform="translate(222,425)"/>
<path d="M0 0 C0.33 0.99 0.66 1.98 1 3 C-2.3 2.34 -5.6 1.68 -9 1 C-9 0.67 -9 0.34 -9 0 C-5.69903842 -0.8252404 -3.1967 -1.37001429 0 0 Z " fill="#AD46FF" transform="translate(745,387)"/>
<path d="M0 0 C2.25 0.125 2.25 0.125 5 1 C7.3125 4.0625 7.3125 4.0625 9 7 C5.18315774 5.44499019 2.80804268 2.96404505 0 0 Z " fill="#AD46FF" transform="translate(696,276)"/>
<path d="M0 0 C2.64 0 5.28 0 8 0 C8 0.66 8 1.32 8 2 C8.66 2.33 9.32 2.66 10 3 C2.25 2.25 2.25 2.25 0 0 Z " fill="#AD46FF" transform="translate(590,221)"/>
<path d="M0 0 C4.29 0.33 8.58 0.66 13 1 C13 1.33 13 1.66 13 2 C9.7 2.33 6.4 2.66 3 3 C3 2.34 3 1.68 3 1 C2.01 0.67 1.02 0.34 0 0 Z " fill="#AD46FF" transform="translate(544,211)"/>
<path d="M0 0 C0.33 0.99 0.66 1.98 1 3 C-0.32 4.32 -1.64 5.64 -3 7 C-3.99 6.67 -4.98 6.34 -6 6 C-4.02 4.02 -2.04 2.04 0 0 Z " fill="#AD46FF" transform="translate(724,728)"/>
<path d="M0 0 C0.66 0.33 1.32 0.66 2 1 C0.68 2.65 -0.64 4.3 -2 6 C-3.32 5.67 -4.64 5.34 -6 5 C-4.02 3.35 -2.04 1.7 0 0 Z " fill="#AD46FF" transform="translate(669,716)"/>
<path d="M0 0 C2.375 0.6875 2.375 0.6875 5 2 C6.3125 4.625 6.3125 4.625 7 7 C3.42895561 5.12050295 1.45255699 3.82946843 0 0 Z " fill="#AD46FF" transform="translate(373,670)"/>
<path d="M0 0 C1.39195915 4.17587745 -0.17676781 6.13474776 -2 10 C-2.33 10 -2.66 10 -3 10 C-3.125 4.25 -3.125 4.25 -2 2 C-1.34 2 -0.68 2 0 2 C0 1.34 0 0.68 0 0 Z " fill="#AD46FF" transform="translate(727,604)"/>
<path d="M0 0 C6.625 0.75 6.625 0.75 10 3 C7.36 3 4.72 3 2 3 C2 2.34 2 1.68 2 1 C1.34 0.67 0.68 0.34 0 0 Z " fill="#AD46FF" transform="translate(731,384)"/>
<path d="M0 0 C2.125 0.375 2.125 0.375 4 1 C2.824375 1.928125 2.824375 1.928125 1.625 2.875 C-0.96837647 4.89858661 -0.96837647 4.89858661 -3 7 C-2.25 2.25 -2.25 2.25 0 0 Z " fill="#AD46FF" transform="translate(670,346)"/>
<path d="M0 0 C0.33 0 0.66 0 1 0 C1.33 3.96 1.66 7.92 2 12 C1.01 11.67 0.02 11.34 -1 11 C-0.67 7.37 -0.34 3.74 0 0 Z " fill="#AD46FF" transform="translate(764,303)"/>
<path d="M0 0 C1.32 0.33 2.64 0.66 4 1 C1.03 3.475 1.03 3.475 -2 6 C-2.66 5.67 -3.32 5.34 -4 5 C-2.68 3.35 -1.36 1.7 0 0 Z " fill="#AD46FF" transform="translate(332,264)"/>
<path d="M0 0 C-2.64 1.65 -5.28 3.3 -8 5 C-8 4.01 -8 3.02 -8 2 C-4.90310319 -1.09689681 -4.48560889 -1.12140222 0 0 Z " fill="#AD46FF" transform="translate(345,259)"/>
<path d="M0 0 C-0.99 1.485 -0.99 1.485 -2 3 C-4.97 2.67 -7.94 2.34 -11 2 C-11 1.67 -11 1.34 -11 1 C-7.26562152 0.12132271 -3.83225427 -0.08912219 0 0 Z " fill="#AD46FF" transform="translate(459,213)"/>
<path d="M0 0 C-3.26545761 1.88391785 -6.28111761 2.49287967 -10 3 C-9.34 2.67 -8.68 2.34 -8 2 C-8 1.34 -8 0.68 -8 0 C-5.13822943 -1.43088528 -3.06624227 -0.59991697 0 0 Z " fill="#AD46FF" transform="translate(605,802)"/>
<path d="M0 0 C3.36720387 1.39332574 4.9859524 2.9789286 7 6 C5.0625 5.6875 5.0625 5.6875 3 5 C2.67 4.01 2.34 3.02 2 2 C1.01 1.67 0.02 1.34 -1 1 C-0.67 0.67 -0.34 0.34 0 0 Z " fill="#AD46FF" transform="translate(316,729)"/>
<path d="M0 0 C3.68754757 0.49831724 5.60490662 1.10067643 8 4 C7.01 4.495 7.01 4.495 6 5 C3.98079663 3.69593116 1.98075027 2.36176581 0 1 C0 0.67 0 0.34 0 0 Z " fill="#AD46FF" transform="translate(387,648)"/>
<path d="M0 0 C0 3.57575896 -1.08840607 5.05295935 -3 8 C-3.66 7.67 -4.32 7.34 -5 7 C-2.25 1.125 -2.25 1.125 0 0 Z " fill="#AD46FF" transform="translate(676,639)"/>
<path d="M0 0 C1.485 0.99 1.485 0.99 3 2 C3.1875 5.625 3.1875 5.625 3 9 C0.23776722 6.23776722 0.42143709 3.79293383 0 0 Z " fill="#AD46FF" transform="translate(265,571)"/>
<path d="M0 0 C-0.33 0.66 -0.66 1.32 -1 2 C-4.3 1.34 -7.6 0.68 -11 0 C-11 -0.33 -11 -0.66 -11 -1 C-6.58937864 -2.0257259 -4.07369424 -2.03684712 0 0 Z " fill="#AD46FF" transform="translate(623,442)"/>
<path d="M0 0 C-0.33 1.65 -0.66 3.3 -1 5 C-3 5 -5 5 -7 5 C-2.25 0 -2.25 0 0 0 Z " fill="#AD46FF" transform="translate(800,430)"/>
<path d="M0 0 C0.33 0 0.66 0 1 0 C1.33 3.63 1.66 7.26 2 11 C1.67 10.34 1.34 9.68 1 9 C0.34 9 -0.32 9 -1 9 C-0.67 6.03 -0.34 3.06 0 0 Z " fill="#AD46FF" transform="translate(766,317)"/>
<path d="M0 0 C0 0.66 0 1.32 0 2 C-1.75 3.6875 -1.75 3.6875 -4 5 C-6.25 4.6875 -6.25 4.6875 -8 4 C-2.25 0 -2.25 0 0 0 Z " fill="#AD46FF" transform="translate(370,296)"/>
<path d="M0 0 C2.64 0 5.28 0 8 0 C8 0.33 8 0.66 8 1 C5.36 1 2.72 1 0 1 C0 0.67 0 0.34 0 0 Z " fill="#AD46FF" transform="translate(552,630)"/>
<path d="M0 0 C2.31 0 4.62 0 7 0 C7 0.33 7 0.66 7 1 C4.69 1 2.38 1 0 1 C0 0.67 0 0.34 0 0 Z " fill="#AD46FF" transform="translate(521,630)"/>
<path d="M0 0 C1.65 0 3.3 0 5 0 C3.02 0.99 3.02 0.99 1 2 C0.67 1.34 0.34 0.68 0 0 Z " fill="#AD46FF" transform="translate(655,581)"/>
<path d="M0 0 C1.65 0 3.3 0 5 0 C5 0.33 5 0.66 5 1 C3.35 1 1.7 1 0 1 C0 0.67 0 0.34 0 0 Z " fill="#AD46FF" transform="translate(538,630)"/>
<path d="M0 0 C1.32 0.33 2.64 0.66 4 1 C3.01 1.33 2.02 1.66 1 2 C0.67 1.34 0.34 0.68 0 0 Z " fill="#AD46FF" transform="translate(336,629)"/>
<path d="M0 0 C1.32 0.33 2.64 0.66 4 1 C3.01 1.495 3.01 1.495 2 2 C1.34 1.34 0.68 0.68 0 0 Z " fill="#AD46FF" transform="translate(741,390)"/>
<path d="M0 0 C4 1 4 1 4 1 Z " fill="#AD46FF" transform="translate(468,760)"/>
<path d="M0 0 C1 4 1 4 1 4 Z " fill="#AD46FF" transform="translate(272,713)"/>
<path d="M0 0 C0.99 0.33 1.98 0.66 3 1 C2.01 1.33 1.02 1.66 0 2 C0 1.34 0 0.68 0 0 Z " fill="#AD46FF" transform="translate(341,630)"/>
<path d="M0 0 C0.33 0.66 0.66 1.32 1 2 C0.01 1.67 -0.98 1.34 -2 1 C-1.34 0.67 -0.68 0.34 0 0 Z " fill="#AD46FF" transform="translate(402,580)"/>
<path d="M0 0 C1 4 1 4 1 4 Z " fill="#AD46FF" transform="translate(815,506)"/>
<path d="M0 0 C0.99 0.33 1.98 0.66 3 1 C2.01 1 1.02 1 0 1 C0 0.67 0 0.34 0 0 Z " fill="#AD46FF" transform="translate(540,344)"/>
<path d="M0 0 C4 1 4 1 4 1 Z " fill="#AD46FF" transform="translate(452,263)"/>
<path d="M0 0 C4 1 4 1 4 1 Z " fill="#AD46FF" transform="translate(466,209)"/>
<path d="M0 0 C3 1 3 1 3 1 Z " fill="#AD46FF" transform="translate(531,815)"/>
<path d="M0 0 C3 1 3 1 3 1 Z " fill="#AD46FF" transform="translate(527,815)"/>
<path d="M0 0 C3 1 3 1 3 1 Z " fill="#AD46FF" transform="translate(333,656)"/>
<path d="M0 0 C0.66 0 1.32 0 2 0 C1.67 0.66 1.34 1.32 1 2 C0.67 1.34 0.34 0.68 0 0 Z " fill="#AD46FF" transform="translate(702,630)"/>
<path d="M0 0 C3 1 3 1 3 1 Z " fill="#AD46FF" transform="translate(482,630)"/>
<path d="M0 0 C3 1 3 1 3 1 Z " fill="#AD46FF" transform="translate(456,630)"/>
<path d="M0 0 C0.66 0 1.32 0 2 0 C1.67 0.66 1.34 1.32 1 2 C0.67 1.34 0.34 0.68 0 0 Z " fill="#AD46FF" transform="translate(312,613)"/>
<path d="" fill="#AD46FF" transform="translate(0,0)"/>
<path d="M0 0 C0.99 0.495 0.99 0.495 2 1 C1.01 1.495 1.01 1.495 0 2 C0 1.34 0 0.68 0 0 Z " fill="#AD46FF" transform="translate(432,589)"/>
<path d="M0 0 C3 1 3 1 3 1 Z " fill="#AD46FF" transform="translate(666,583)"/>
<path d="M0 0 C3 1 3 1 3 1 Z " fill="#AD46FF" transform="translate(663,582)"/>
<path d="M0 0 C3 1 3 1 3 1 Z " fill="#AD46FF" transform="translate(394,581)"/>
<path d="M0 0 C3 1 3 1 3 1 Z " fill="#AD46FF" transform="translate(650,580)"/>
<path d="M0 0 C0.66 0.66 1.32 1.32 2 2 C1.34 2 0.68 2 0 2 C0 1.34 0 0.68 0 0 Z " fill="#AD46FF" transform="translate(304,579)"/>
<path d="" fill="#AD46FF" transform="translate(0,0)"/>
<path d="M0 0 C3 1 3 1 3 1 Z " fill="#AD46FF" transform="translate(448,515)"/>
<path d="M0 0 C0.66 0 1.32 0 2 0 C1.67 0.66 1.34 1.32 1 2 C0.67 1.34 0.34 0.68 0 0 Z " fill="#AD46FF" transform="translate(564,513)"/>
<path d="" fill="#AD46FF" transform="translate(0,0)"/>
<path d="" fill="#AD46FF" transform="translate(0,0)"/>
<path d="M0 0 C0.99 0.495 0.99 0.495 2 1 C1.01 1.495 1.01 1.495 0 2 C0 1.34 0 0.68 0 0 Z " fill="#AD46FF" transform="translate(358,454)"/>
<path d="M0 0 C3 1 3 1 3 1 Z " fill="#AD46FF" transform="translate(628,376)"/>
<path d="M0 0 C3 1 3 1 3 1 Z " fill="#AD46FF" transform="translate(353,376)"/>
<path d="" fill="#AD46FF" transform="translate(0,0)"/>
<path d="" fill="#AD46FF" transform="translate(0,0)"/>
<path d="M0 0 C0.33 0.66 0.66 1.32 1 2 C0.34 1.67 -0.32 1.34 -1 1 C-0.67 0.67 -0.34 0.34 0 0 Z " fill="#AD46FF" transform="translate(681,324)"/>
<path d="" fill="#AD46FF" transform="translate(0,0)"/>
<path d="M0 0 C0.66 0.66 1.32 1.32 2 2 C1.34 2 0.68 2 0 2 C0 1.34 0 0.68 0 0 Z " fill="#AD46FF" transform="translate(563,262)"/>
<path d="M0 0 C3 1 3 1 3 1 Z " fill="#AD46FF" transform="translate(384,232)"/>
<path d="M0 0 C3 1 3 1 3 1 Z " fill="#AD46FF" transform="translate(431,216)"/>
<path d="M0 0 C3 1 3 1 3 1 Z " fill="#AD46FF" transform="translate(533,208)"/>
<path d="M0 0 C2 1 2 1 2 1 Z " fill="#AD46FF" transform="translate(508,815)"/>
<path d="M0 0 C2 1 2 1 2 1 Z " fill="#AD46FF" transform="translate(596,806)"/>
<path d="M0 0 C2 1 2 1 2 1 Z " fill="#AD46FF" transform="translate(654,783)"/>
<path d="M0 0 C2 1 2 1 2 1 Z " fill="#AD46FF" transform="translate(520,765)"/>
<path d="M0 0 C2 1 2 1 2 1 Z " fill="#AD46FF" transform="translate(500,764)"/>
<path d="M0 0 C2 1 2 1 2 1 Z " fill="#AD46FF" transform="translate(568,760)"/>
<path d="M0 0 C2 1 2 1 2 1 Z " fill="#AD46FF" transform="translate(438,752)"/>
<path d="" fill="#AD46FF" transform="translate(0,0)"/>
<path d="" fill="#AD46FF" transform="translate(0,0)"/>
<path d="M0 0 C2 1 2 1 2 1 Z " fill="#AD46FF" transform="translate(368,666)"/>
<path d="M0 0 C2 1 2 1 2 1 Z " fill="#AD46FF" transform="translate(660,655)"/>
<path d="M0 0 C2 1 2 1 2 1 Z " fill="#AD46FF" transform="translate(728,648)"/>
<path d="M0 0 C2 1 2 1 2 1 Z " fill="#AD46FF" transform="translate(627,646)"/>
<path d="M0 0 C2 1 2 1 2 1 Z " fill="#AD46FF" transform="translate(626,643)"/>
<path d="" fill="#AD46FF" transform="translate(0,0)"/>
<path d="M0 0 C2 1 2 1 2 1 Z " fill="#AD46FF" transform="translate(598,630)"/>
<path d="M0 0 C2 1 2 1 2 1 Z " fill="#AD46FF" transform="translate(579,630)"/>
<path d="M0 0 C2 1 2 1 2 1 Z " fill="#AD46FF" transform="translate(573,630)"/>
<path d="M0 0 C2 1 2 1 2 1 Z " fill="#AD46FF" transform="translate(568,630)"/>
<path d="M0 0 C2 1 2 1 2 1 Z " fill="#AD46FF" transform="translate(563,630)"/>
<path d="M0 0 C2 1 2 1 2 1 Z " fill="#AD46FF" transform="translate(547,630)"/>
<path d="M0 0 C2 1 2 1 2 1 Z " fill="#AD46FF" transform="translate(515,630)"/>
<path d="M0 0 C2 1 2 1 2 1 Z " fill="#AD46FF" transform="translate(499,630)"/>
<path d="M0 0 C2 1 2 1 2 1 Z " fill="#AD46FF" transform="translate(478,630)"/>
<path d="M0 0 C2 1 2 1 2 1 Z " fill="#AD46FF" transform="translate(475,630)"/>
<path d="M0 0 C2 1 2 1 2 1 Z " fill="#AD46FF" transform="translate(350,630)"/>
<path d="M0 0 C2 1 2 1 2 1 Z " fill="#AD46FF" transform="translate(705,629)"/>
<path d="M0 0 C2 1 2 1 2 1 Z " fill="#AD46FF" transform="translate(329,627)"/>
<path d="M0 0 C2 1 2 1 2 1 Z " fill="#AD46FF" transform="translate(692,606)"/>
<path d="M0 0 C2 1 2 1 2 1 Z " fill="#AD46FF" transform="translate(661,600)"/>
<path d="M0 0 C2 1 2 1 2 1 Z " fill="#AD46FF" transform="translate(676,588)"/>
<path d="" fill="#AD46FF" transform="translate(0,0)"/>
<path d="M0 0 C2 1 2 1 2 1 Z " fill="#AD46FF" transform="translate(641,581)"/>
<path d="" fill="#AD46FF" transform="translate(0,0)"/>
<path d="" fill="#AD46FF" transform="translate(0,0)"/>
<path d="M0 0 C2 1 2 1 2 1 Z " fill="#AD46FF" transform="translate(636,516)"/>
<path d="M0 0 C2 1 2 1 2 1 Z " fill="#AD46FF" transform="translate(612,516)"/>
<path d="M0 0 C2 1 2 1 2 1 Z " fill="#AD46FF" transform="translate(588,516)"/>
<path d="M0 0 C2 1 2 1 2 1 Z " fill="#AD46FF" transform="translate(580,516)"/>
<path d="" fill="#AD46FF" transform="translate(0,0)"/>
<path d="M0 0 C2 1 2 1 2 1 Z " fill="#AD46FF" transform="translate(208,485)"/>
<path d="" fill="#AD46FF" transform="translate(0,0)"/>
<path d="" fill="#AD46FF" transform="translate(0,0)"/>
<path d="" fill="#AD46FF" transform="translate(0,0)"/>
<path d="" fill="#AD46FF" transform="translate(0,0)"/>
<path d="" fill="#AD46FF" transform="translate(0,0)"/>
<path d="" fill="#AD46FF" transform="translate(0,0)"/>
<path d="M0 0 C2 1 2 1 2 1 Z " fill="#AD46FF" transform="translate(624,453)"/>
<path d="" fill="#AD46FF" transform="translate(0,0)"/>
<path d="" fill="#AD46FF" transform="translate(0,0)"/>
<path d="M0 0 C2 1 2 1 2 1 Z " fill="#AD46FF" transform="translate(677,439)"/>
<path d="" fill="#AD46FF" transform="translate(0,0)"/>
<path d="M0 0 C2 1 2 1 2 1 Z " fill="#AD46FF" transform="translate(737,389)"/>
<path d="M0 0 C2 1 2 1 2 1 Z " fill="#AD46FF" transform="translate(710,381)"/>
<path d="M0 0 C2 1 2 1 2 1 Z " fill="#AD46FF" transform="translate(688,375)"/>
<path d="M0 0 C2 1 2 1 2 1 Z " fill="#AD46FF" transform="translate(686,374)"/>
<path d="" fill="#AD46FF" transform="translate(0,0)"/>
<path d="" fill="#AD46FF" transform="translate(0,0)"/>
<path d="M0 0 C2 1 2 1 2 1 Z " fill="#AD46FF" transform="translate(404,279)"/>
<path d="M0 0 C2 1 2 1 2 1 Z " fill="#AD46FF" transform="translate(605,276)"/>
<path d="M0 0 C2 1 2 1 2 1 Z " fill="#AD46FF" transform="translate(427,270)"/>
<path d="M0 0 C2 1 2 1 2 1 Z " fill="#AD46FF" transform="translate(577,266)"/>
<path d="M0 0 C2 1 2 1 2 1 Z " fill="#AD46FF" transform="translate(463,261)"/>
<path d="M0 0 C2 1 2 1 2 1 Z " fill="#AD46FF" transform="translate(544,259)"/>
<path d="M0 0 C2 1 2 1 2 1 Z " fill="#AD46FF" transform="translate(368,240)"/>
<path d="" fill="#AD46FF" transform="translate(0,0)"/>
<path d="" fill="#AD46FF" transform="translate(0,0)"/>
<path d="" fill="#AD46FF" transform="translate(0,0)"/>
<path d="" fill="#AD46FF" transform="translate(0,0)"/>
<path d="" fill="#AD46FF" transform="translate(0,0)"/>
<path d="" fill="#AD46FF" transform="translate(0,0)"/>
<path d="" fill="#AD46FF" transform="translate(0,0)"/>
<path d="" fill="#AD46FF" transform="translate(0,0)"/>
<path d="" fill="#AD46FF" transform="translate(0,0)"/>
<path d="" fill="#AD46FF" transform="translate(0,0)"/>
<path d="" fill="#AD46FF" transform="translate(0,0)"/>
<path d="" fill="#AD46FF" transform="translate(0,0)"/>
<path d="" fill="#AD46FF" transform="translate(0,0)"/>
<path d="" fill="#AD46FF" transform="translate(0,0)"/>
<path d="" fill="#AD46FF" transform="translate(0,0)"/>
<path d="" fill="#AD46FF" transform="translate(0,0)"/>
<path d="" fill="#AD46FF" transform="translate(0,0)"/>
<path d="" fill="#AD46FF" transform="translate(0,0)"/>
<path d="" fill="#AD46FF" transform="translate(0,0)"/>
<path d="" fill="#AD46FF" transform="translate(0,0)"/>
<path d="" fill="#AD46FF" transform="translate(0,0)"/>
<path d="" fill="#AD46FF" transform="translate(0,0)"/>
<path d="" fill="#AD46FF" transform="translate(0,0)"/>
<path d="" fill="#AD46FF" transform="translate(0,0)"/>
<path d="" fill="#AD46FF" transform="translate(0,0)"/>
<path d="" fill="#AD46FF" transform="translate(0,0)"/>
<path d="" fill="#AD46FF" transform="translate(0,0)"/>
<path d="" fill="#AD46FF" transform="translate(0,0)"/>
<path d="" fill="#AD46FF" transform="translate(0,0)"/>
<path d="" fill="#AD46FF" transform="translate(0,0)"/>
<path d="" fill="#AD46FF" transform="translate(0,0)"/>
<path d="" fill="#AD46FF" transform="translate(0,0)"/>
<path d="" fill="#AD46FF" transform="translate(0,0)"/>
<path d="" fill="#AD46FF" transform="translate(0,0)"/>
<path d="" fill="#AD46FF" transform="translate(0,0)"/>
<path d="" fill="#AD46FF" transform="translate(0,0)"/>
<path d="" fill="#AD46FF" transform="translate(0,0)"/>
<path d="" fill="#AD46FF" transform="translate(0,0)"/>
<path d="" fill="#AD46FF" transform="translate(0,0)"/>
<path d="" fill="#AD46FF" transform="translate(0,0)"/>
<path d="" fill="#AD46FF" transform="translate(0,0)"/>
<path d="" fill="#AD46FF" transform="translate(0,0)"/>
<path d="" fill="#AD46FF" transform="translate(0,0)"/>
<path d="" fill="#AD46FF" transform="translate(0,0)"/>
<path d="" fill="#AD46FF" transform="translate(0,0)"/>
<path d="" fill="#AD46FF" transform="translate(0,0)"/>
<path d="" fill="#AD46FF" transform="translate(0,0)"/>
<path d="" fill="#AD46FF" transform="translate(0,0)"/>
<path d="" fill="#AD46FF" transform="translate(0,0)"/>
<path d="" fill="#AD46FF" transform="translate(0,0)"/>
<path d="" fill="#AD46FF" transform="translate(0,0)"/>
<path d="" fill="#AD46FF" transform="translate(0,0)"/>
<path d="" fill="#AD46FF" transform="translate(0,0)"/>
<path d="" fill="#AD46FF" transform="translate(0,0)"/>
<path d="" fill="#AD46FF" transform="translate(0,0)"/>
<path d="" fill="#AD46FF" transform="translate(0,0)"/>
<path d="" fill="#AD46FF" transform="translate(0,0)"/>
<path d="" fill="#AD46FF" transform="translate(0,0)"/>
<path d="" fill="#AD46FF" transform="translate(0,0)"/>
<path d="" fill="#AD46FF" transform="translate(0,0)"/>
<path d="" fill="#AD46FF" transform="translate(0,0)"/>
<path d="" fill="#AD46FF" transform="translate(0,0)"/>
<path d="" fill="#AD46FF" transform="translate(0,0)"/>
<path d="" fill="#AD46FF" transform="translate(0,0)"/>
<path d="" fill="#AD46FF" transform="translate(0,0)"/>
<path d="" fill="#AD46FF" transform="translate(0,0)"/>
<path d="" fill="#AD46FF" transform="translate(0,0)"/>
<path d="" fill="#AD46FF" transform="translate(0,0)"/>
<path d="" fill="#AD46FF" transform="translate(0,0)"/>
<path d="" fill="#AD46FF" transform="translate(0,0)"/>
<path d="" fill="#AD46FF" transform="translate(0,0)"/>
<path d="" fill="#AD46FF" transform="translate(0,0)"/>
<path d="" fill="#AD46FF" transform="translate(0,0)"/>
<path d="" fill="#AD46FF" transform="translate(0,0)"/>
<path d="" fill="#AD46FF" transform="translate(0,0)"/>
<path d="" fill="#AD46FF" transform="translate(0,0)"/>
<path d="" fill="#AD46FF" transform="translate(0,0)"/>
<path d="" fill="#AD46FF" transform="translate(0,0)"/>
<path d="" fill="#AD46FF" transform="translate(0,0)"/>
<path d="" fill="#AD46FF" transform="translate(0,0)"/>
<path d="" fill="#AD46FF" transform="translate(0,0)"/>
<path d="" fill="#AD46FF" transform="translate(0,0)"/>
<path d="" fill="#AD46FF" transform="translate(0,0)"/>
<path d="" fill="#AD46FF" transform="translate(0,0)"/>
<path d="" fill="#AD46FF" transform="translate(0,0)"/>
<path d="" fill="#AD46FF" transform="translate(0,0)"/>
<path d="" fill="#AD46FF" transform="translate(0,0)"/>
<path d="" fill="#AD46FF" transform="translate(0,0)"/>
<path d="" fill="#AD46FF" transform="translate(0,0)"/>
<path d="" fill="#AD46FF" transform="translate(0,0)"/>
<path d="" fill="#AD46FF" transform="translate(0,0)"/>
<path d="" fill="#AD46FF" transform="translate(0,0)"/>
<path d="" fill="#AD46FF" transform="translate(0,0)"/>
<path d="" fill="#AD46FF" transform="translate(0,0)"/>
<path d="" fill="#AD46FF" transform="translate(0,0)"/>
<path d="" fill="#AD46FF" transform="translate(0,0)"/>
<path d="" fill="#AD46FF" transform="translate(0,0)"/>
<path d="" fill="#AD46FF" transform="translate(0,0)"/>
<path d="" fill="#AD46FF" transform="translate(0,0)"/>
<path d="" fill="#AD46FF" transform="translate(0,0)"/>
<path d="" fill="#AD46FF" transform="translate(0,0)"/>
<path d="" fill="#AD46FF" transform="translate(0,0)"/>
<path d="" fill="#AD46FF" transform="translate(0,0)"/>
<path d="" fill="#AD46FF" transform="translate(0,0)"/>
<path d="" fill="#AD46FF" transform="translate(0,0)"/>
<path d="" fill="#AD46FF" transform="translate(0,0)"/>
<path d="" fill="#AD46FF" transform="translate(0,0)"/>
<path d="" fill="#AD46FF" transform="translate(0,0)"/>
<path d="" fill="#AD46FF" transform="translate(0,0)"/>
<path d="" fill="#AD46FF" transform="translate(0,0)"/>
<path d="" fill="#AD46FF" transform="translate(0,0)"/>
<path d="" fill="#AD46FF" transform="translate(0,0)"/>
<path d="" fill="#AD46FF" transform="translate(0,0)"/>
<path d="" fill="#AD46FF" transform="translate(0,0)"/>
<path d="" fill="#AD46FF" transform="translate(0,0)"/>
<path d="" fill="#AD46FF" transform="translate(0,0)"/>
<path d="" fill="#AD46FF" transform="translate(0,0)"/>
<path d="" fill="#AD46FF" transform="translate(0,0)"/>
<path d="" fill="#AD46FF" transform="translate(0,0)"/>
<path d="" fill="#AD46FF" transform="translate(0,0)"/>
<path d="" fill="#AD46FF" transform="translate(0,0)"/>
<path d="" fill="#AD46FF" transform="translate(0,0)"/>
<path d="" fill="#AD46FF" transform="translate(0,0)"/>
<path d="" fill="#AD46FF" transform="translate(0,0)"/>
<path d="" fill="#AD46FF" transform="translate(0,0)"/>
<path d="" fill="#AD46FF" transform="translate(0,0)"/>
<path d="" fill="#AD46FF" transform="translate(0,0)"/>
<path d="" fill="#AD46FF" transform="translate(0,0)"/>
<path d="" fill="#AD46FF" transform="translate(0,0)"/>
<path d="" fill="#AD46FF" transform="translate(0,0)"/>
<path d="" fill="#AD46FF" transform="translate(0,0)"/>
<path d="" fill="#AD46FF" transform="translate(0,0)"/>
<path d="" fill="#AD46FF" transform="translate(0,0)"/>
<path d="" fill="#AD46FF" transform="translate(0,0)"/>
<path d="" fill="#AD46FF" transform="translate(0,0)"/>
<path d="" fill="#AD46FF" transform="translate(0,0)"/>
<path d="" fill="#AD46FF" transform="translate(0,0)"/>
<path d="" fill="#AD46FF" transform="translate(0,0)"/>
<path d="" fill="#AD46FF" transform="translate(0,0)"/>
<path d="" fill="#AD46FF" transform="translate(0,0)"/>
<path d="" fill="#AD46FF" transform="translate(0,0)"/>
<path d="" fill="#AD46FF" transform="translate(0,0)"/>
<path d="" fill="#AD46FF" transform="translate(0,0)"/>
<path d="" fill="#AD46FF" transform="translate(0,0)"/>
<path d="" fill="#AD46FF" transform="translate(0,0)"/>
<path d="" fill="#AD46FF" transform="translate(0,0)"/>
<path d="" fill="#AD46FF" transform="translate(0,0)"/>
<path d="" fill="#AD46FF" transform="translate(0,0)"/>
<path d="" fill="#AD46FF" transform="translate(0,0)"/>
<path d="" fill="#AD46FF" transform="translate(0,0)"/>
<path d="" fill="#AD46FF" transform="translate(0,0)"/>
<path d="" fill="#AD46FF" transform="translate(0,0)"/>
<path d="" fill="#AD46FF" transform="translate(0,0)"/>
<path d="" fill="#AD46FF" transform="translate(0,0)"/>
<path d="" fill="#AD46FF" transform="translate(0,0)"/>
<path d="" fill="#AD46FF" transform="translate(0,0)"/>
<path d="" fill="#AD46FF" transform="translate(0,0)"/>
<path d="" fill="#AD46FF" transform="translate(0,0)"/>
<path d="" fill="#AD46FF" transform="translate(0,0)"/>
<path d="" fill="#AD46FF" transform="translate(0,0)"/>
<path d="" fill="#AD46FF" transform="translate(0,0)"/>
<path d="" fill="#AD46FF" transform="translate(0,0)"/>
<path d="" fill="#AD46FF" transform="translate(0,0)"/>
<path d="" fill="#AD46FF" transform="translate(0,0)"/>
<path d="" fill="#AD46FF" transform="translate(0,0)"/>
<path d="" fill="#AD46FF" transform="translate(0,0)"/>
<path d="" fill="#AD46FF" transform="translate(0,0)"/>
<path d="" fill="#AD46FF" transform="translate(0,0)"/>
<path d="" fill="#AD46FF" transform="translate(0,0)"/>
<path d="" fill="#AD46FF" transform="translate(0,0)"/>
<path d="" fill="#AD46FF" transform="translate(0,0)"/>
<path d="" fill="#AD46FF" transform="translate(0,0)"/>
<path d="" fill="#AD46FF" transform="translate(0,0)"/>
<path d="" fill="#AD46FF" transform="translate(0,0)"/>
<path d="" fill="#AD46FF" transform="translate(0,0)"/>
<path d="" fill="#AD46FF" transform="translate(0,0)"/>
<path d="" fill="#AD46FF" transform="translate(0,0)"/>
<path d="" fill="#AD46FF" transform="translate(0,0)"/>
<path d="" fill="#AD46FF" transform="translate(0,0)"/>
<path d="" fill="#AD46FF" transform="translate(0,0)"/>
<path d="" fill="#AD46FF" transform="translate(0,0)"/>
<path d="" fill="#AD46FF" transform="translate(0,0)"/>
<path d="" fill="#AD46FF" transform="translate(0,0)"/>
<path d="" fill="#AD46FF" transform="translate(0,0)"/>
<path d="" fill="#AD46FF" transform="translate(0,0)"/>
<path d="" fill="#AD46FF" transform="translate(0,0)"/>
<path d="" fill="#AD46FF" transform="translate(0,0)"/>
<path d="" fill="#AD46FF" transform="translate(0,0)"/>
<path d="" fill="#AD46FF" transform="translate(0,0)"/>
<path d="" fill="#AD46FF" transform="translate(0,0)"/>
<path d="" fill="#AD46FF" transform="translate(0,0)"/>
<path d="" fill="#AD46FF" transform="translate(0,0)"/>
<path d="" fill="#AD46FF" transform="translate(0,0)"/>
<path d="" fill="#AD46FF" transform="translate(0,0)"/>
<path d="" fill="#AD46FF" transform="translate(0,0)"/>
<path d="" fill="#AD46FF" transform="translate(0,0)"/>
<path d="" fill="#AD46FF" transform="translate(0,0)"/>
<path d="" fill="#AD46FF" transform="translate(0,0)"/>
<path d="" fill="#AD46FF" transform="translate(0,0)"/>
<path d="" fill="#AD46FF" transform="translate(0,0)"/>
<path d="" fill="#AD46FF" transform="translate(0,0)"/>
<path d="" fill="#AD46FF" transform="translate(0,0)"/>
<path d="" fill="#AD46FF" transform="translate(0,0)"/>
<path d="" fill="#AD46FF" transform="translate(0,0)"/>
<path d="" fill="#AD46FF" transform="translate(0,0)"/>
<path d="" fill="#AD46FF" transform="translate(0,0)"/>
<path d="" fill="#AD46FF" transform="translate(0,0)"/>
<path d="" fill="#AD46FF" transform="translate(0,0)"/>
<path d="" fill="#AD46FF" transform="translate(0,0)"/>
<path d="" fill="#AD46FF" transform="translate(0,0)"/>
<path d="" fill="#AD46FF" transform="translate(0,0)"/>
<path d="" fill="#AD46FF" transform="translate(0,0)"/>
<path d="" fill="#AD46FF" transform="translate(0,0)"/>
<path d="" fill="#AD46FF" transform="translate(0,0)"/>
<path d="" fill="#AD46FF" transform="translate(0,0)"/>
<path d="" fill="#AD46FF" transform="translate(0,0)"/>
<path d="" fill="#AD46FF" transform="translate(0,0)"/>
<path d="" fill="#AD46FF" transform="translate(0,0)"/>
<path d="" fill="#AD46FF" transform="translate(0,0)"/>
<path d="" fill="#AD46FF" transform="translate(0,0)"/>
<path d="" fill="#AD46FF" transform="translate(0,0)"/>
<path d="" fill="#AD46FF" transform="translate(0,0)"/>
<path d="" fill="#AD46FF" transform="translate(0,0)"/>
<path d="" fill="#AD46FF" transform="translate(0,0)"/>
<path d="" fill="#AD46FF" transform="translate(0,0)"/>
<path d="" fill="#AD46FF" transform="translate(0,0)"/>
<path d="" fill="#AD46FF" transform="translate(0,0)"/>
<path d="" fill="#AD46FF" transform="translate(0,0)"/>
<path d="" fill="#AD46FF" transform="translate(0,0)"/>
<path d="" fill="#AD46FF" transform="translate(0,0)"/>
<path d="" fill="#AD46FF" transform="translate(0,0)"/>
<path d="" fill="#AD46FF" transform="translate(0,0)"/>
<path d="" fill="#AD46FF" transform="translate(0,0)"/>
<path d="" fill="#AD46FF" transform="translate(0,0)"/>
<path d="" fill="#AD46FF" transform="translate(0,0)"/>
<path d="" fill="#AD46FF" transform="translate(0,0)"/>
<path d="" fill="#AD46FF" transform="translate(0,0)"/>
<path d="" fill="#AD46FF" transform="translate(0,0)"/>
<path d="" fill="#AD46FF" transform="translate(0,0)"/>
<path d="" fill="#AD46FF" transform="translate(0,0)"/>
<path d="" fill="#AD46FF" transform="translate(0,0)"/>
<path d="" fill="#AD46FF" transform="translate(0,0)"/>
<path d="" fill="#AD46FF" transform="translate(0,0)"/>
<path d="" fill="#AD46FF" transform="translate(0,0)"/>
<path d="" fill="#AD46FF" transform="translate(0,0)"/>
<path d="" fill="#AD46FF" transform="translate(0,0)"/>
<path d="" fill="#AD46FF" transform="translate(0,0)"/>
<path d="" fill="#AD46FF" transform="translate(0,0)"/>
<path d="" fill="#AD46FF" transform="translate(0,0)"/>
<path d="" fill="#AD46FF" transform="translate(0,0)"/>
<path d="" fill="#AD46FF" transform="translate(0,0)"/>
<path d="" fill="#AD46FF" transform="translate(0,0)"/>
<path d="" fill="#AD46FF" transform="translate(0,0)"/>
<path d="" fill="#AD46FF" transform="translate(0,0)"/>
<path d="" fill="#AD46FF" transform="translate(0,0)"/>
<path d="" fill="#AD46FF" transform="translate(0,0)"/>
<path d="" fill="#AD46FF" transform="translate(0,0)"/>
<path d="" fill="#AD46FF" transform="translate(0,0)"/>
<path d="" fill="#AD46FF" transform="translate(0,0)"/>
<path d="" fill="#AD46FF" transform="translate(0,0)"/>
<path d="" fill="#AD46FF" transform="translate(0,0)"/>
<path d="" fill="#AD46FF" transform="translate(0,0)"/>
<path d="" fill="#AD46FF" transform="translate(0,0)"/>
<path d="" fill="#AD46FF" transform="translate(0,0)"/>
<path d="" fill="#AD46FF" transform="translate(0,0)"/>
<path d="" fill="#AD46FF" transform="translate(0,0)"/>
<path d="" fill="#AD46FF" transform="translate(0,0)"/>
<path d="" fill="#AD46FF" transform="translate(0,0)"/>
<path d="" fill="#AD46FF" transform="translate(0,0)"/>
<path d="" fill="#AD46FF" transform="translate(0,0)"/>
<path d="" fill="#AD46FF" transform="translate(0,0)"/>
<path d="" fill="#AD46FF" transform="translate(0,0)"/>
<path d="" fill="#AD46FF" transform="translate(0,0)"/>
<path d="" fill="#AD46FF" transform="translate(0,0)"/>
<path d="" fill="#AD46FF" transform="translate(0,0)"/>
<path d="" fill="#AD46FF" transform="translate(0,0)"/>
<path d="" fill="#AD46FF" transform="translate(0,0)"/>
<path d="" fill="#AD46FF" transform="translate(0,0)"/>
<path d="" fill="#AD46FF" transform="translate(0,0)"/>
<path d="" fill="#AD46FF" transform="translate(0,0)"/>
<path d="" fill="#AD46FF" transform="translate(0,0)"/>
<path d="" fill="#AD46FF" transform="translate(0,0)"/>
<path d="" fill="#AD46FF" transform="translate(0,0)"/>
<path d="" fill="#AD46FF" transform="translate(0,0)"/>
<path d="" fill="#AD46FF" transform="translate(0,0)"/>
<path d="" fill="#AD46FF" transform="translate(0,0)"/>
<path d="" fill="#AD46FF" transform="translate(0,0)"/>
<path d="" fill="#AD46FF" transform="translate(0,0)"/>
<path d="" fill="#AD46FF" transform="translate(0,0)"/>
<path d="" fill="#AD46FF" transform="translate(0,0)"/>
<path d="" fill="#AD46FF" transform="translate(0,0)"/>
<path d="" fill="#AD46FF" transform="translate(0,0)"/>
<path d="" fill="#AD46FF" transform="translate(0,0)"/>
<path d="" fill="#AD46FF" transform="translate(0,0)"/>
<path d="" fill="#AD46FF" transform="translate(0,0)"/>
<path d="" fill="#AD46FF" transform="translate(0,0)"/>
<path d="" fill="#AD46FF" transform="translate(0,0)"/>
<path d="" fill="#AD46FF" transform="translate(0,0)"/>
<path d="" fill="#AD46FF" transform="translate(0,0)"/>
<path d="" fill="#AD46FF" transform="translate(0,0)"/>
<path d="" fill="#AD46FF" transform="translate(0,0)"/>
<path d="" fill="#AD46FF" transform="translate(0,0)"/>
<path d="" fill="#AD46FF" transform="translate(0,0)"/>
<path d="" fill="#AD46FF" transform="translate(0,0)"/>
<path d="" fill="#AD46FF" transform="translate(0,0)"/>
<path d="" fill="#AD46FF" transform="translate(0,0)"/>
<path d="" fill="#AD46FF" transform="translate(0,0)"/>
<path d="" fill="#AD46FF" transform="translate(0,0)"/>
<path d="" fill="#AD46FF" transform="translate(0,0)"/>
<path d="" fill="#AD46FF" transform="translate(0,0)"/>
<path d="" fill="#AD46FF" transform="translate(0,0)"/>
<path d="" fill="#AD46FF" transform="translate(0,0)"/>
<path d="" fill="#AD46FF" transform="translate(0,0)"/>
<path d="" fill="#AD46FF" transform="translate(0,0)"/>
<path d="" fill="#AD46FF" transform="translate(0,0)"/>
<path d="" fill="#AD46FF" transform="translate(0,0)"/>
<path d="" fill="#AD46FF" transform="translate(0,0)"/>
<path d="" fill="#AD46FF" transform="translate(0,0)"/>
<path d="" fill="#AD46FF" transform="translate(0,0)"/>
<path d="" fill="#AD46FF" transform="translate(0,0)"/>
<path d="" fill="#AD46FF" transform="translate(0,0)"/>
<path d="" fill="#AD46FF" transform="translate(0,0)"/>
<path d="" fill="#AD46FF" transform="translate(0,0)"/>
<path d="" fill="#AD46FF" transform="translate(0,0)"/>
<path d="" fill="#AD46FF" transform="translate(0,0)"/>
<path d="" fill="#AD46FF" transform="translate(0,0)"/>
<path d="" fill="#AD46FF" transform="translate(0,0)"/>
<path d="" fill="#AD46FF" transform="translate(0,0)"/>
<path d="" fill="#AD46FF" transform="translate(0,0)"/>
<path d="" fill="#AD46FF" transform="translate(0,0)"/>
<path d="" fill="#AD46FF" transform="translate(0,0)"/>
<path d="" fill="#AD46FF" transform="translate(0,0)"/>
<path d="" fill="#AD46FF" transform="translate(0,0)"/>
<path d="" fill="#AD46FF" transform="translate(0,0)"/>
<path d="" fill="#AD46FF" transform="translate(0,0)"/>
<path d="" fill="#AD46FF" transform="translate(0,0)"/>
<path d="" fill="#AD46FF" transform="translate(0,0)"/>
<path d="" fill="#AD46FF" transform="translate(0,0)"/>
<path d="" fill="#AD46FF" transform="translate(0,0)"/>
<path d="" fill="#AD46FF" transform="translate(0,0)"/>
<path d="" fill="#AD46FF" transform="translate(0,0)"/>
<path d="" fill="#AD46FF" transform="translate(0,0)"/>
<path d="" fill="#AD46FF" transform="translate(0,0)"/>
<path d="" fill="#AD46FF" transform="translate(0,0)"/>
<path d="" fill="#AD46FF" transform="translate(0,0)"/>
<path d="" fill="#AD46FF" transform="translate(0,0)"/>
<path d="" fill="#AD46FF" transform="translate(0,0)"/>
<path d="" fill="#AD46FF" transform="translate(0,0)"/>
<path d="" fill="#AD46FF" transform="translate(0,0)"/>
<path d="" fill="#AD46FF" transform="translate(0,0)"/>
<path d="" fill="#AD46FF" transform="translate(0,0)"/>
<path d="" fill="#AD46FF" transform="translate(0,0)"/>
<path d="" fill="#AD46FF" transform="translate(0,0)"/>
<path d="" fill="#AD46FF" transform="translate(0,0)"/>
<path d="" fill="#AD46FF" transform="translate(0,0)"/>
<path d="" fill="#AD46FF" transform="translate(0,0)"/>
<path d="" fill="#AD46FF" transform="translate(0,0)"/>
<path d="" fill="#AD46FF" transform="translate(0,0)"/>
<path d="" fill="#AD46FF" transform="translate(0,0)"/>
<path d="" fill="#AD46FF" transform="translate(0,0)"/>
<path d="" fill="#AD46FF" transform="translate(0,0)"/>
<path d="" fill="#AD46FF" transform="translate(0,0)"/>
<path d="" fill="#AD46FF" transform="translate(0,0)"/>
<path d="" fill="#AD46FF" transform="translate(0,0)"/>
<path d="" fill="#AD46FF" transform="translate(0,0)"/>
<path d="" fill="#AD46FF" transform="translate(0,0)"/>
<path d="" fill="#AD46FF" transform="translate(0,0)"/>
<path d="" fill="#AD46FF" transform="translate(0,0)"/>
<path d="" fill="#AD46FF" transform="translate(0,0)"/>
<path d="" fill="#AD46FF" transform="translate(0,0)"/>
<path d="" fill="#AD46FF" transform="translate(0,0)"/>
<path d="" fill="#AD46FF" transform="translate(0,0)"/>
<path d="" fill="#AD46FF" transform="translate(0,0)"/>
<path d="" fill="#AD46FF" transform="translate(0,0)"/>
<path d="" fill="#AD46FF" transform="translate(0,0)"/>
<path d="" fill="#AD46FF" transform="translate(0,0)"/>
<path d="" fill="#AD46FF" transform="translate(0,0)"/>
<path d="" fill="#AD46FF" transform="translate(0,0)"/>
<path d="" fill="#AD46FF" transform="translate(0,0)"/>
<path d="" fill="#AD46FF" transform="translate(0,0)"/>
<path d="" fill="#AD46FF" transform="translate(0,0)"/>
<path d="" fill="#AD46FF" transform="translate(0,0)"/>
<path d="" fill="#AD46FF" transform="translate(0,0)"/>
<path d="" fill="#AD46FF" transform="translate(0,0)"/>
<path d="" fill="#AD46FF" transform="translate(0,0)"/>
<path d="" fill="#AD46FF" transform="translate(0,0)"/>
<path d="" fill="#AD46FF" transform="translate(0,0)"/>
<path d="" fill="#AD46FF" transform="translate(0,0)"/>
<path d="" fill="#AD46FF" transform="translate(0,0)"/>
<path d="" fill="#AD46FF" transform="translate(0,0)"/>
<path d="" fill="#AD46FF" transform="translate(0,0)"/>
<path d="" fill="#AD46FF" transform="translate(0,0)"/>
<path d="" fill="#AD46FF" transform="translate(0,0)"/>
<path d="" fill="#AD46FF" transform="translate(0,0)"/>
<path d="" fill="#AD46FF" transform="translate(0,0)"/>
<path d="" fill="#AD46FF" transform="translate(0,0)"/>
<path d="" fill="#AD46FF" transform="translate(0,0)"/>
</svg>
</svg>
